<svg id="Layer_1" data-name="Layer 1" xmlns="http://www.w3.org/2000/svg" viewBox="0 0 370.4 460.98"><defs><style>.cls-1{fill:#263a80;}</style></defs><title>footer_logo</title><path class="cls-1" d="M109.19,171h331v10.24c0,62.47.31,125,0,187.42-.09,19.59-5.07,38.46-11.88,56.77C424.44,436,421.2,447,415.88,456.8c-14.05,26-32,49.11-57,65.49a203,203,0,0,1-38.2,20c-12.42,4.75-25.91,7.24-39.16,9.1-6.57.92-13.72-1.49-20.49-3a170.22,170.22,0,0,1-55.17-22.86c-21.11-13.33-39-29.56-53.16-50.11-3.92-5.7-8.72-10.86-12.09-16.85-5-8.84-9-18.19-13.49-27.33-2.22-4.59-5.11-9-6.51-13.82-5.86-20.17-12.16-40-11.81-61.7.93-57.63.39-115.28.43-172.92Zm326.7,4.92H114.34c-.13,1.68-.29,2.83-.29,4,0,63.32-.21,126.65.34,190,.09,10.36,2.81,20.93,5.78,31s7.79,19.4,11.7,29.11c8.45,21,20.7,39.58,35.47,56.67,12,13.94,25.59,26.29,41.47,35.38,14.45,8.28,29.28,16.09,45.73,20.4,17.48,4.58,35,5.74,51.88-.48,15.72-5.79,30.85-13.36,45.79-21,6.24-3.19,11.39-8.56,16.93-13.07a141.52,141.52,0,0,0,34.15-39.7c.81-1.44,1.84-2.77,2.6-4.24,4.52-8.68,9.78-17.08,13.27-26.15a231.15,231.15,0,0,0,10.33-34.34c3-13.77,6.19-27.83,6.35-41.8.69-60.48.3-121,.29-181.47C436.13,178.64,436,177.2,435.89,175.87Z" transform="translate(-91.85 -170.95)"/><path class="cls-1" d="M129.85,464.65a6.86,6.86,0,0,1-.38,1c-6.6,11.34-5.73,10.72,1.86,21.32,9.15,12.76,20.88,22.82,32.49,32.73,14.93,12.76,31.51,23.62,47.59,35,5.24,3.7,7.35,2.29,7.63-4.12.06-1.47,0-2.94,0-5.42,6.67,3,12.54,6,18.61,8.43,12.44,5,25,9.82,37.53,14.52a8.27,8.27,0,0,0,5.31-.13c13-4.87,26.05-9.82,39-15,5.52-2.21,10.8-5,16.68-7.81.36,3.84.67,7.19,1.06,11.37,2.6-1.08,4.88-1.6,6.67-2.83,10.41-7.14,21.09-14,30.95-21.83,12.69-10.1,25-20.69,36.87-31.78,6.7-6.29,12.18-13.91,17.88-21.19.87-1.11.36-3.79-.27-5.46-1-2.72-2.81-5.14-4-7.82a3.58,3.58,0,0,1,.3-3.05c4.88-6.29,9.81-12.55,15-18.54.61-.7,3.84-.37,4.57.53,2.13,2.63,3.6,5.78,5.33,8.72,9,15.29,12.62,31.86,11.52,49.48-.14,2.25-.55,5.09-2,6.51-3.62,3.63-2.58,7.08-.68,10.72,2.15,4.14,1.13,7.13-2.07,10.53-17.67,18.79-35.92,37-56.34,52.75-11.85,9.1-23.18,19.43-38.08,24.12-7,2.22-13.56,6-20.47,8.71-7.5,2.93-15.3,2.41-23.13,1.26-1.71-.25-4.17.11-5.33,1.2-9.44,8.88-20.89,12.37-33.45,13.25-11.47.81-22-2.27-32-7.51-10.72-5.57-10.77-5.4-22.85-5.43-12.33,0-23.05-5.14-33.94-10.27-18.57-8.75-34.22-21.62-49.79-34.5-9.66-8-18.1-17.45-27.16-26.18-2.75-2.64-6-4.84-8.56-7.6-4.18-4.41-8-9.11-11.61-13.22,1-4.12,2-7.57,2.67-11.08.25-1.37.17-3.42-.66-4.26-5.88-5.9-5-13.41-4-20.23,2.37-16.18,7.08-31.76,16.07-45.7,2.63-4.06,4.28-3.6,7,.35C120,452.43,124.92,458.29,129.85,464.65Zm300.57.12c5.49,7.4,6.41,13.87,3,17.51C424.31,492.09,417,503.5,406,511.69c-5.14,3.86-9.35,8.93-14.4,12.93-10.76,8.54-21.62,17-32.78,25a135.12,135.12,0,0,1-18.71,10.88c-4.65,2.31-9.91,3.37-14.69,5.45s-6.71,5.62-6.46,11.1c.45,10.14.14,20.32.17,30.48,0,1.45.16,2.89.34,5.81,6.77-.55,13.2-.5,19.4-1.68,22.45-4.24,40.64-17.41,57.72-31.1,19-15.23,35.8-33.18,53.68-49.83,3.93-3.66,5.17-7.45,2.64-12.37-2.13-4.16-1.42-7.43,2.13-11.06,2.34-2.4,3.7-6.75,3.68-10.22,0-5.22-1.44-10.49-2.59-15.66-2.55-11.36-7.48-21.69-13.78-31.65ZM112.26,449.5c-2.53,4.73-4.74,8.58-6.69,12.56a91.8,91.8,0,0,0-9.2,37.42c-.09,2.49.57,6.09,2.26,7.36,6.09,4.59,4,9.64,2.35,15.22-.56,1.9,0,5.05,1.24,6.44,20.39,21.9,41.69,42.75,66.42,59.93,11.2,7.79,22.16,15.66,35.2,20.07,8.76,3,17.3,6.87,27,5.23,3.33-.56,4.78-1.77,4.67-5.48-.28-9.65-.73-19.38.13-29,.73-8.07-3.42-12.15-9.52-15-3.66-1.72-7.91-2.15-11.87-3.26-1.85-.52-3.9-.89-5.42-2-6.28-4.34-12.43-8.85-18.54-13.42-11.15-8.34-23-15.93-33.15-25.35C144.36,508.45,133.05,495,121,482.38c-2.74-2.89-2.53-6-1.11-9.19,1.32-3,3-5.82,4.24-8.27ZM224.59,553.33l-1.18,1.06c.9,1.3,1.54,3,2.78,3.84,3.31,2.18,7.15,3.62,10.24,6.06,2.34,1.84,5.36,4.7,5.46,7.2.46,12.47,0,25,0,37.46,0,1.95.73,4.5,2.07,5.75,6.44,6,13.84,10.61,22.83,11.22a174.74,174.74,0,0,0,21.95,0c8.45-.5,15.73-4.28,21.57-10.25a12.47,12.47,0,0,0,3.08-7.83c.19-12-.32-24-.1-35.95,0-2.12,1.89-4.76,3.68-6.18,3.61-2.86,7.83-4.93,11.62-7.59,1.3-.92,2.06-2.61,3.06-4-14,5-27.2,10.38-40.42,15.62-6.74,2.67-13.36,5.94-21,2.59-14.38-6.28-28.9-12.26-43.37-18.35A20.89,20.89,0,0,0,224.59,553.33Z" transform="translate(-91.85 -170.95)"/><path class="cls-1" d="M125.13,187.84H268.69v124.9H130.53v9.92H419.75v-9.49H283.48V187.51H423.34v34.3q0,47.25,0,94.48c0,17.66.7,35.35-.2,53-1,19.09-3.61,38-11.8,55.77-4,8.72-6.87,18-11.25,26.56-8.62,16.84-19.7,32.21-34.2,44.33a211.16,211.16,0,0,1-36.45,24.89c-14.46,7.61-30.25,13.11-46.72,14.56-7.19.64-14.79-1.35-22-3.06a157.12,157.12,0,0,1-61.28-29.79c-13.1-10.29-24.34-22.6-34.39-36-10.91-14.57-19-30.72-26.46-47.09-4.78-10.49-6.51-22.32-10.38-33.26-2.8-7.91-2.93-15.85-2.93-24q.06-85.21,0-170.44C125.34,190.74,125.24,189.74,125.13,187.84ZM420.05,327.17H130.43c-.12,2-.33,3.77-.33,5.56,0,9.16.61,18.38-.11,27.48-1.17,14.73,3.07,28.58,7.5,42,5.13,15.5,12.23,30.53,20,44.92s18.17,27.17,30,38.82c11.09,11,23.71,19.54,36.91,27.59,12.67,7.73,26.7,11.55,40.79,15.1,7.59,1.91,15.37,3.78,23.51,1.26,9-2.79,18.91-3.44,27.31-7.4,17.76-8.38,34.89-17.81,49.41-31.8,10.32-10,18.69-21.15,26.3-32.94,11.09-17.19,17-36.67,22.65-56.2C421.37,377.28,420.33,352.47,420.05,327.17Zm-179-106.6c3.53-3.14,7.13-3.18,10.88-1.38s5.82,1.1,8.36-2.81c4.81-7.4,2.31-15.17,2.78-22.78,0-.62-1.6-1.92-2.47-1.93-6.49,0-13,.22-19.46.23-36.78,0-73.56,0-110.53,0V298.72l1.19.39c1.48-2.31,3.32-4.48,4.36-7,2.42-5.81,3.69-11.68,7.66-17.3,5.42-7.66,7.56-17.64,11.11-26.63l-1.64-1c-2.12,2.28-4.23,4.57-7.34,7.93.42-5.08.71-8.62,1.09-13.24L141.53,246a7.25,7.25,0,0,1,1.38-5.7c1.42-1.56,3.55-2.48,5.37-3.68L147.5,235l-6.71,2.4-.67-1.42,13.57-6.84c-3.26-1.36-6-2.5-9.28-3.9,1.05-1.09,2.15-3,2.85-2.86,3.7.73,7.29,2,11.39,3.17,2.55-7.22-8.2-4.6-9.27-11.59l11.1,4.3c3.2-4.15-2.1-7.07-2.92-11,8.19,0,8.64,7.32,12,12.24,3.33-3.09,6.14-6.39,9.6-8.72s7.84-2.82,12.41-.18a68.43,68.43,0,0,0-8.36,1.48c-5.66,1.74-7.12,5.66-5,11.13.39,1-1.27,2.78-2,4.2l-1.42-.41,3.54,13.82-1.27.73-5-6.37-1,.78c.39,3.06.78,6.12,1.26,9.83l-4.85-2.83c-.44,6.19-.84,11.73-1.28,17.84-4.63-4.58,1.63-12.76-6.64-15.54-5.1,7-6.29,15.2-7.28,23.08-1.43,11.29-.73,11.61,10.34,13.05.23,0,.41.43,1.18,1.3L131.42,307.8a78.88,78.88,0,0,0,16.18,1.08c4.14,0,7.87.2,11.17-3.87,8.69-10.74,18.16-20.84,27.1-31.38,2.72-3.2,1.49-6.2-2.5-7.73-.88-.34-1.74-.71-2.87-1.18l4.4-5.75h-7.12c-.24-2.82-.45-5.3-.68-8.06,4.07,1.93,7.3,1.67,10.13-1.85a5.67,5.67,0,0,1,4.22-1.83c4.27.38,8.18.47,11-3.6.59-.86,1.84-1.27,2.81-1.87,3.79-2.34,8.6-1.53,10.54,2a14.61,14.61,0,0,1-2.62,1.26c-2.75.67-5.86.62-8.19,2-2,1.17-3.15,3.85-4.67,5.86a24.54,24.54,0,0,1,4.71,2.13,55.79,55.79,0,0,1,5.17,4.7l-.92,1.45-6.77-1,4.74,5.59-7.85-2-1.19,1.09c1.93,4.44,7.41,8,3.46,14.08,3.25,0,5.71-.15,8.15,0,4.71.36,9.62.24,14.07,1.58,4.13,1.26,7.46,2.9,9.26-3.06,3.44,1.42,6.83,2.22,9.31,4.16.89.7-.65,4.19-.57,6.39,0,1,1.15,2.73,2,2.87,1.15.18,3.46-.65,3.58-1.35.5-2.84,1.83-4.84,4.46-3.2,1.66,1,2.74,3.84,3,6,.26,1.94-.92,4.07-1.38,5.79l9.19,7.89c.4-1.06,1-2,1-2.87-.09-8-.39-16-.46-23.92-.07-9-2.36-11.59-11.52-12.34-1-.08-2,0-3.71,0,2.26-3.32,7.45-4.44,3.5-10l7,1.26c.46-5,7.29-8.26,3.87-14.59l-4.57,3.16c-1.27-3.05-2.34-5.46-3.27-7.92s-2.07-3.27-4.26-1.08a52.69,52.69,0,0,1-7.14,6.23c-.72.49-2.88-.28-3.74-1.12s-.63-2.4-.86-3.52c2.87-3,7.87-4.49,5.67-10.36,4.62,1.28,9,2.61,13.5,3.71,5.36,1.33,6.38.08,4.81-5.56C243.66,224.53,243.66,224.53,241.1,220.57ZM404,193.45l-.17-1.59H367.9c-25.17,0-50.33.1-75.48-.18-3.46,0-4.19.48-4.18,3.83.1,34,0,68,0,102v11.08H419.73V230.23l-1.62,0c0,3.58.18,7.17-.06,10.74-.18,2.79,0,6.2-1.5,8.21-6.87,9.23-14.17,18.14-21.53,27-5.66,6.8-11.63,13.34-17.58,20.13-5.59-3.43-11.73-7.22-17.89-11-7.46-4.54-15.12-8.13-24.3-7.6-2.34.13-5.3-1.56-7.13-3.31-6.23-5.92-12.41-11.74-20.63-14.93-4.23-1.65-8.24-3.86-12.67-6,3-3.37,5.44-6.31,8.12-9q17.61-17.4,35.38-34.63c1.38-1.35,2.78-3.24,4.47-3.63,11.46-2.63,23-4.93,34.53-7.32Q390.64,196.19,404,193.45Zm-66.22,76.67c11.77,5.67,22,10.56,32.26,15.56,2.33,1.14,4.85,4.07,6.63,3.62,2.08-.52,3.37-3.92,5.11-6q13.74-16.27,27.56-32.48c1.89-2.21,2.46-3.79-.1-6.23-7.37-7-16.29-10.59-26-12.63a6.8,6.8,0,0,0-4.87,1.48c-3.62,2.87-7,6-10.38,9.21-7.29,6.88-14.46,13.88-21.8,20.7C343.55,265.84,340.53,267.91,337.75,270.12Zm-5,.31,43.14-41.29c-3-2.56-5.84-5.16-8.88-7.44s-6.07-4.69-9.48-6.18c-4.34-1.9-9-3.75-13.64-4-2.1-.09-4.39,3.83-6.57,6-.23.23-.31.62-.54.83q-12.75,12-25.53,23.89c-2.88,2.69-5.85,5.27-9.14,8.22Zm-75.42,38.51c-.92-4.89-4.28-6.43-7.79-8-4-1.85-7.94-4.07-11.94-6.07-6.71-3.35-13.21-7.32-20.23-9.79-9.48-3.33-19.18-1.75-29,.19-5.58,1.1-9.56,2.75-11.9,8.46,1.23.44,2.56,1.44,3.55,1.17,9.1-2.41,15.53,4.56,23.35,6.59,1.65.44,2.57,3.31,4.09,4.78,1.18,1.14,2.77,2.58,4.19,2.6C226.67,309,241.65,308.94,257.33,308.94ZM385.47,226l29.59,15.38q2.19-22.63,4.41-45.41l-1.94-.81Zm-6.32-.69,30-28.5-.6-1.29c-17.48,4.18-35.31,6.9-52.43,12.95A125.38,125.38,0,0,0,367.64,217C371.37,219.58,375,222.31,379.15,225.32ZM162.78,309c9.36,0,17.9.06,26.45-.13.65,0,2-2.48,1.78-2.68-1.76-1.87-3.56-3.9-5.79-5-1.61-.83-3.89-.32-5.86-.49C168.8,299.77,169.07,298.52,162.78,309Zm37.58-38.33-2.12-.18c-2.88,1.87-3.49,4.51-1.77,7.47.42.71,2.19.63,3.35.92Z" transform="translate(-91.85 -170.95)"/><path class="cls-1" d="M419.74,521.35c-1.08,8.56,7.64,12.11,11.87,18.46-5.45,2.46-5.45,2.46-11.66-4.6l-6.82,7.24,9.59,4.77c-2.69,1.85-9.06,1-11.24-1.74-2.55-3.16-.83-5.83,1.15-8.49,1.49-2,2.77-4.14,4.15-6.23l-1.42-1-11.72,12.71,12.87,14.38c-4,3-6.94,2.78-9.55-1.12-2.37-3.54-5-6.91-7.55-10.41-3,3-2.47,4.2,7.84,17.94-4.12,2.89-5.87,1.55-14.82-11.53l-3.88,2.3,13.71,15.84-1,1.72-9.49-3.53c-2.27,2.29-6.08,4.66-10.88,1.35-.58,1-1.67,2-1.62,3a29.93,29.93,0,0,0,1.32,5.64c-2.41.3-4.93,1.18-7.19.72s-4.28-2.25-6.41-3.45l.64-1.24,9.53,3.53c-1.39-3.23-3.47-5.75-3.17-8s2.93-4.24,4.54-6.34l-1.4-1.59c-4,2.9-7.95,5.87-12,8.64a28.72,28.72,0,0,1-4.76,2.12c.7-2,.83-4.72,2.23-5.78,4.45-3.4,9.57-5.92,14.08-9.25,4.73-3.48,9.05-7.5,14.57-12.15H379.9c-.11-2.31,1.58-2.87,6.4-2,2.77.47,5.62.52,8.61.78-.12-1.35,0-1.76-.19-1.95-1.8-2.17-5.57-5.1-5.08-6.27,1.12-2.68,4.06-4.93,6.75-6.51,2.34-1.37,5.41-1.43,8.06-2.34C409.46,525.25,414.41,523.33,419.74,521.35Zm-9.83,8.23c-7.93-.94-12.88,1.51-16,7.64,2.42.34,5.12,1.61,6.52.75C403.64,536,406.17,533,409.91,529.58Zm-30.33,29.74c1.55,2.57,2.48,4.32,3.63,5.92.58.81,1.64,2,2.31,1.85.84-.14,2.22-1.55,2.1-2.15-.42-2.09-.86-4.75-2.31-5.87C384.14,558.17,381.49,559.17,379.58,559.32Z" transform="translate(-91.85 -170.95)"/><path class="cls-1" d="M428.08,515.59c1.64,2,3.33,3.25,3.23,4.26s-1.89,2.07-2.95,3.09c-.87-1.07-2.22-2-2.48-3.24C425.7,518.81,426.93,517.62,428.08,515.59Z" transform="translate(-91.85 -170.95)"/><path class="cls-1" d="M148.21,537.66a51.41,51.41,0,0,1-5.87-5.32c-.89-1.06-.83-2.91-1.2-4.4a36.38,36.38,0,0,1,4.53,1.21c.69.28,1.16,1.14,1.89,1.9a10.28,10.28,0,0,0,1.35-1.45c1.68-2.76,3.41-5.83,7.3-4.34,3.69,1.41,5.82,5,4.6,8.43-2.45,6.83,1.23,9,6.08,12.47,15.25,10.85,29.92,22.52,44.76,33.94a10.33,10.33,0,0,1,2.84,4.26c-4.2-.33-8.06-1.09-11,2.71-2.4,3.12-5.39,5.78-8.37,8.91-2.13-4,.81-6.24,2.75-8.51a93.89,93.89,0,0,1,7.42-7l-4.06-3.06L186,591.84c-.78-2.68-.78-2.68,5.79-11.37-2-1.05-4.84-3.33-5.58-2.79-2.78,2.09-4.89,5.08-7.75,8.28.77-3.64.88-7.59,2.47-10.79,1.95-3.92,5.43-3.14,8.95-1.19,2,1.09,3.68,5,6.45,1.7.32-.38-2.49-3.79-4.21-5.4-2.41-2.23-5.16-4.09-8.17-6.43l-13.45,18.49-2.07-.77,1.38-7.45c-1.85-2-4.16-4.68-6.67-7.14a4.69,4.69,0,0,0-3-1c-4.38-.12-6.15-3.34-5.91-6.59.18-2.49,2.24-5.85,4.4-6.93,3.2-1.6,5.88.92,7.47,4,.6,1.16.82,2.84,1.75,3.4s3.44-.06,3.47-.37c.19-1.59.44-4-.48-4.77-4.08-3.56-8.56-6.67-12.73-9.82l-13.54,17.35c-3.87-4.68-3.88-4.8-.37-8.71,2.66-3,5.49-5.82,7.94-8.95.75-1,.51-2.68.05-4.47-4,3.69-7.27,4.72-11.62,1.08-2.61-2.18-4.5.3-4.1,4.95l7.59.34.47,1.58-8.43,9.11c-.81-3.35-2.24-7-2.41-10.69a11.13,11.13,0,0,1,2.62-7.34c1-1.09,4.06-.41,6.19-.34,1.83.05,3.65.36,5.47.56Zm19.16,27.45-.15,1.62c2.51.41,5.32,1.69,7.45,1,1.76-.59,2.74-3.54,4.06-5.44l-1.16-.88ZM155,538l2.65-1.27-2.46-7.61c-1.3.84-3.82,2.15-3.72,2.42A51.39,51.39,0,0,0,155,538Zm8.31,25.57c0-4.37-.78-7.34-4.85-6.45-.84.19-1.36,1.89-2,2.89Z" transform="translate(-91.85 -170.95)"/><path class="cls-1" d="M125.43,518.19c-1.84-2.17-3.81-4.25-5.44-6.57-.76-1.07-.86-2.61-1.25-3.93l2.69-1.71,5.79,9,2.42-1.35c-.8-3.87-1.59-7.74-2.4-11.66,2.9-1,5.81,1.32,5.55,5.35-.14,2.12-1.07,4.19-1.2,6.31a18,18,0,0,0,.8,4.81c.3,1.38.72,2.73,1.09,4.09a18.25,18.25,0,0,1-3.62-1.54c-.6-.42-.76-1.5-1-2.11l-4.49,4.77c-3.76-1-5.87-8.11-10.7-1.21a44,44,0,0,1,4.15,2.57,47.47,47.47,0,0,1,3.63,3.47,31.73,31.73,0,0,1-3.29,3.17,11.76,11.76,0,0,1-2.61,1.3c-1.62-3.58-3.65-6.9-4.51-10.5-.35-1.51,1.4-4.13,2.93-5.28,1.27-1,3.71-1,5.45-.58s3,1.84,4.41,2.83Z" transform="translate(-91.85 -170.95)"/><path class="cls-1" d="M219.87,573.5c-2.39,4.4-4.84,4.42-7.65,3.24-4.94-2.06-5.55-3.31-4.24-10.8C210.55,571.29,212.68,576.2,219.87,573.5Z" transform="translate(-91.85 -170.95)"/><path class="cls-1" d="M275.82,604.1c1.16,3,2,5.19,3,7.67-5.1-1.18-9.42-6.77-9-11.49,3.22-.2,6.54-.22,9.79-.69,1.29-.19,2.44-1.37,3.65-2.1-1.17-1-2.19-2.57-3.56-3s-3.33.24-4.92-.06a38.84,38.84,0,0,1-5.63-1.9l.4-1.76h13.1c2.28-5.63-3.66-4.16-5.65-6.94,1.12-.68,2.58-2.15,3.2-1.85,1.84.87,4.47,2.22,4.78,3.78.72,3.67,2.32,4.82,5.85,4.55.83-.06,1.78,1.37,3.39,2.7-5.44,1.4-5.3,4.76-5.08,8.43.26,4.28.06,8.59.06,12.87-5.72.52-5.84.32-5.92-10.17Z" transform="translate(-91.85 -170.95)"/><path class="cls-1" d="M324.58,504.75c-4.64,2.35-9,5.66-13.95,6.87a128.57,128.57,0,0,1-50.46,2.21c-5.25-.79-10.62-1.42-15.63-3-4-1.29-7.56-3.9-11.24-6.05-2.92-1.71-2.34-4.11-.11-5.56a45.11,45.11,0,0,1,10.87-5.53c4.69-1.49,9.69-2,14.41-2.92a99.75,99.75,0,0,0,.25-46.54c-2.25-9.45-8.65-16.89-16.33-23-4.23-3.35-8-7.45-12.64-10.07-7.14-4-14.79-7.16-22.29-10.53-10.73-4.82-21.68-9.17-32.16-14.47-3.08-1.56-5.23-5.43-7.21-8.62-7.93-12.77-9.69-23.82.28-35.72,1-1.26,2-2.63,3.6-4.84,2.21,7.22,4.21,13.84,6.26,20.44,1.36,4.41,3.41,8.73,4,13.24.46,3.78-.79,7.78-1.35,12.26a27.9,27.9,0,0,0,4.66,0c22.58-3.19,45.05-7.51,67.73-9.35,16.12-1.3,32.55.13,48.75,1.44a179,179,0,0,1,34.68,6c8.72,2.5,16.06-.06,23.73-2.36,10.11-3,20.35-4,30.43-1.25a13.81,13.81,0,0,1,8.23,7.87c1.92,5.92,2.26,12.51-3.11,17.61-20.35,19.34-45.53,23.79-72.25,23.29a96,96,0,0,1-16.88-1.41c-8.77-1.75-8-.53-13.35,8.27-5.93,9.73-4.24,20.64-4,31.22.17,7.3,1.16,14.58,1.36,21.88.1,3.73,1.68,4.53,5.07,5.05a103.78,103.78,0,0,1,18.82,4.4c3.67,1.3,6.67,4.48,10,6.81Zm8.72-117.38c-5.51-5.85-12.35-5.42-18.22-6.13a243.06,243.06,0,0,0-35.88-1.78c-17,.47-34,2.09-51.06,3.27-9.36.65-18.77,1.15-28.11,4.87.93.63,1.42,1.21,2,1.29,14.26,2.05,28.47,4.89,42.81,5.85,17.42,1.15,34.95,1,52.43.84,10.34-.11,21,.59,30.71-4.22C329.81,390.45,331.34,388.86,333.3,387.37ZM315.2,416c2.74.22,3.85.52,4.9.37,11.56-1.73,23.24-3,34.64-5.48a103.71,103.71,0,0,0,22.68-8.13c2.33-1.13,3.91-5.68,4.15-8.79.28-3.61-1.76-6.6-6-8-8-2.66-15.13-.48-22,3.06s-13.41,7.78-20.07,11.75c-4.1,2.45-8.38,4.68-12.16,7.55C319.16,410,317.74,412.77,315.2,416ZM169.28,351.47c-4.63,11.44-1.14,20.59,5.86,28.34C179.32,373.39,176.33,358.92,169.28,351.47Z" transform="translate(-91.85 -170.95)"/></svg>