<svg id="Layer_1" data-name="Layer 1" xmlns="http://www.w3.org/2000/svg" viewBox="0 0 319.13 388.34"><defs><style>.cls-1{fill:#d9b363;}</style></defs><title>logoo</title><path class="cls-1" d="M276.09,476a97.88,97.88,0,0,0-28.75,18.65c-12.78,12-18.33,27-18.87,44.43-2.28-4.5-2.81-13-1.43-20.72,2.66-14.87,10.69-26.34,22.5-35.37,13.41-10.24,29-16.25,44.43-22.41,10-4,20.26-7.6,29.75-12.88,27.81-15.48,36.69-41.74,24-70.89-4.7-10.83-10.81-21-14.65-32.26A54.76,54.76,0,0,1,330,332.52c-.22-2.08-.82-4.31,1.1-6.23,2.19,11.25,8.08,20.73,13.17,30.6,5.69,11,11.62,22,14.05,34.35q5.35,27.27-13.94,47.27c-8.49,8.79-18.82,14.82-29.6,20.31-17.11,8.7-32.74,19.51-43.57,35.74-14,21-19.25,43.66-10.79,68.33.4,1.18.37,2.68,2.35,3.43-2.29-16.05-1.62-31.7,3.26-47,1-3.12,1.89-6.31,4.33-9.08a154.63,154.63,0,0,0,6.33,85.28c-18.4-13.52-26.44-35-26.23-69.46-4.76,3.82-5.46,6.46-8.15,30.9-2.44-3.4-3.49-6.57-3.6-12.16-.27-12.56,4-23.15,13.91-31.17a8,8,0,0,0,3.05-3.79c4.17-12.83,11.91-23.33,21.55-32.55a10.83,10.83,0,0,0,.87-1.27A1.5,1.5,0,0,0,276.09,476Z" transform="translate(-138.92 -226.46)"/><path class="cls-1" d="M293.48,390.78c-2.85-.7-4.64-2.3-5-5.4-.41-3.33-1.94-5.11-5.74-4.16-3.61.91-6.79-.63-10.49-3.68.31,4.82.6,8.51.78,12.2,1,20-2.56,39.12-12.36,56.81-4.08,7.36-9.9,12.53-18.53,13.74-10.73,1.5-20.08-6.89-18.65-16.71.72-4.87,3.44-8.48,8.17-9.78,4-1.1,8.11-1.17,11.19,2.84s2.48,9.13-2.06,12.22l-.51-.6c1.67-2.67,1.87-5.3-.29-7.81a5.74,5.74,0,0,0-6.39-1.7,7.42,7.42,0,0,0-5.24,6.12c-1.19,6,3.06,11.36,9.76,11.86,8.85.66,15-3.67,19-11.17,5.68-10.58,8.08-22.13,9.47-33.94,4.11-34.88-9.18-62.75-34.74-85.57-10.06-9-20.36-17.71-30.46-26.66a100.4,100.4,0,0,1-22.18-27.84c-8.14-15.31-5.68-32.46,6.53-44-9.42,24.18-.26,43.19,15.39,60.46,8.53,9.42,18.4,17.38,28,25.6,15.21,13,28.65,27.42,36.69,46.1,1.71,4,3.12,8.07,4.44,12.19,2,6.23,8.69,9.66,14.78,6.89,8.89-4,14.65-11,16.34-20.68,1.5-8.61-2.92-14.26-11.26-17.68a15.33,15.33,0,0,1,14.63,7.09c3.62,5.6,3.34,11.47.44,17.12-3.31,6.43-8.67,10.86-15.21,13.9-1.39.65-3.33.47-4,2.38,7.17,2.56,7.88,3.54,7.39,10Z" transform="translate(-138.92 -226.46)"/><path class="cls-1" d="M287.88,568.13c7.91,19,21,33.39,38.53,43.89,1.42.85,2.82,1.74,4.23,2.61l-.06,0c-19.06-4.55-35-14.22-45.08-31.13-17.48-29.24-17.16-59.57-2.9-90,1.39-3,3.59-5.56,5.41-8.33l.7.6c-6.48,13.79-9,28.38-9,43.54.1,23,12.46,38.06,34.25,45-10.11,2.34-17.91-1.38-25.23-6.85l-1-.55Z" transform="translate(-138.92 -226.46)"/><path class="cls-1" d="M352.11,360.34c-2.35-11.43.53-21.73,6.1-31.48,5.15-9,11.86-16.85,18.54-24.71,4.75-5.58,9.62-11.06,14.1-16.84,14.2-18.34,21.3-38,10.56-60.85,10.43,8.86,13.87,20.1,11.76,33.25-2,12.57-8.38,23-16.43,32.55-5.15,6.1-10.63,11.92-16,17.85C367.56,324.75,354.76,339.61,352.11,360.34Z" transform="translate(-138.92 -226.46)"/><path class="cls-1" d="M263.35,391.26c-13-20.54-30.12-36.75-49.78-50.54-11.59-8.14-23.16-16.32-34.08-25.35-7.69-6.36-15.05-13.25-19.3-22.43-6.3-13.58-6.12-27,3.08-39.54,1.09-1.48,1.21-3.86,4-4.58-2,6-4.42,11.63-4.71,17.73-.61,12.76,3.82,23.78,11.67,33.61,7.65,9.59,17,17.27,26.73,24.7,17,13.1,34.13,26.18,47.88,43a127.54,127.54,0,0,1,12.76,17.87C262.57,387.35,264.12,388.92,263.35,391.26Z" transform="translate(-138.92 -226.46)"/><path class="cls-1" d="M260,407.08c-17.33-22.2-41.07-35.5-65.8-47.42a178,178,0,0,1-30-17.8,63.87,63.87,0,0,1-17.48-19.59c-5.67-10-4.3-24.55,2.38-34.86,1.39,2.75-.48,5.12-.59,7.58-.63,14.16,4.49,25.88,14.17,36,8.88,9.26,19.54,16,30.62,22.17,14.68,8.19,29.63,15.92,42.75,26.62.51.42,1.09.72,1.63,0l-.1-.1c-1,3.19,2.19,3.69,3.61,4.8a87.38,87.38,0,0,1,19.55,22.06Z" transform="translate(-138.92 -226.46)"/><path class="cls-1" d="M319.9,310a26.9,26.9,0,0,0,18.52-.52c2-.75,5.82-1.4,2.58-5.38-1.12-1.38.32-2.86,2-3.23a2.72,2.72,0,0,1,3.56,2.52c.29,2-.8,3.53-1.84,5-6.14,8.91-15.11,10.06-24.85,8.93-3.3-.39-6.56-1.12-9.86-1.51a29.14,29.14,0,0,0-9.93.63c-4.57,1-22.72,15.8-24.81,20.45,4.68-.68,9-3,14.19-1.89-2.9,3.19-6.76,3.56-10.22,4.6s-6.8,2.2-9.34,5.43c-.95-8.51,2.43-14.8,10.1-18.7A11.77,11.77,0,0,0,285.5,321c2.81-5.4,7.34-8.85,13.08-10.93a52,52,0,0,0,15.65-8.58c2-1.71,5-3.51,1.15-6.5-1.1-.84-.73-2.12.09-3.12a2.57,2.57,0,0,1,2.66-1,3.94,3.94,0,0,1,3.21,3.44c.44,4.47-1.78,7.72-5.52,9.82-1.7,1-3.48,1.68-4.76,3.33,5.35,1.1,16.41-3.79,18.92-8.25.68-1.23,1.34-2.42-.26-3.43-1.27-.81-2-1.83-1.19-3.31a3.07,3.07,0,0,1,3.37-1.61,3.58,3.58,0,0,1,3.11,2.87c.8,3.83-.79,6.83-3.48,9.36C328.19,306.24,323.91,307.71,319.9,310Z" transform="translate(-138.92 -226.46)"/><path class="cls-1" d="M356.49,370.42c2.36-7.89,7-12.85,11.14-18.11,10.92-14,24-25.85,37.19-37.59a88.52,88.52,0,0,0,20.52-26.58c6.25-12.46,5.05-25.15-1-37.49-.65-1.33-1.47-2.59-2.3-4,7.52,3.47,14.31,15.14,14.54,24.92.3,12.47-4.82,22.92-12.41,32.34C417,312.76,408,319.75,399.4,327.07c-12.57,10.68-24.87,21.59-35.62,34.2C361.5,364,360.91,367.87,356.49,370.42Z" transform="translate(-138.92 -226.46)"/><path class="cls-1" d="M325,561.59c-7.72.92-14.82-.83-20.5-5.92-15.37-13.77-17.89-31.6-14.8-50.76,3-18.62,13.5-32.59,28.44-43.53.49-.36,1.14-.51,2.5,0-2.81,3.32-5.83,6.48-8.39,10-14,19.08-19.31,40.05-12.27,63.09C303.86,547.19,311.92,556.78,325,561.59Z" transform="translate(-138.92 -226.46)"/><path class="cls-1" d="M251,448c-.8-4.57.6-9.32-2.76-13.71a27.52,27.52,0,0,0-11.52-8.65c-13.05-5.54-27-7.44-40.84-10.06-11.81-2.24-23.41-5.19-33.73-11.77-12.39-7.89-19.53-18.65-18.85-35.29,1.94,4.7,3.12,8.2,4.79,11.45,5.33,10.39,13.89,17.18,24.47,21.78,14.93,6.5,31,8.86,46.59,12.82,6.46,1.64,12.88,3.34,18.87,6.37a37.33,37.33,0,0,1,10.43,7.61c6,6.29,6.64,11.78,2.48,19.45Z" transform="translate(-138.92 -226.46)"/><path class="cls-1" d="M443.74,284.67c3,.27,3.45,2.51,4.34,4.13,7.35,13.48,4.67,29.85-6.22,42.07-9.12,10.23-20.15,17.86-31.79,24.71-16.34,9.62-32.87,18.91-46.28,32.66,0,0-.28-.09-.71-.25,0-2.1,1.52-3.5,2.73-4.94a98,98,0,0,1,19.28-17.32c10.94-7.6,22-15,33-22.59,9.45-6.51,17.64-14.25,23.1-24.48C446.89,307.92,448.08,296.74,443.74,284.67Z" transform="translate(-138.92 -226.46)"/><path class="cls-1" d="M253.32,418.87c-15.16-14-33.71-21.57-52.8-28.24-14.91-5.2-29.92-10.2-43-19.42-13.27-9.33-20.85-21.3-18-38.2.17-1,.39-2,.65-2.91a15.57,15.57,0,0,1,1-2c.31,2.71.48,4.72.77,6.72,2,13.49,9,23.65,20.17,31.32,15.08,10.4,32.19,16.43,48.92,23.38,16.19,6.73,31.74,14.65,43.29,28.52Z" transform="translate(-138.92 -226.46)"/><path class="cls-1" d="M453.54,366.78c2.16,14-3.46,24.63-14.54,32.63-8.75,6.33-18.73,10.07-28.94,13.21-10,3.09-20.1,5.95-29.9,9.73a80.5,80.5,0,0,0-19.74,10.56c-1.28,1-2.44,2.41-4.8,1.32,3.78-5.31,8.69-9.08,14.05-12.35,11.06-6.75,23.45-10.21,35.54-14.43,9.12-3.17,18.28-6.29,26.6-11.31,10.14-6.11,18.25-13.88,20.28-26.31A12.13,12.13,0,0,1,453.54,366.78Z" transform="translate(-138.92 -226.46)"/><path class="cls-1" d="M364.89,408.12c1.89-4.15,5.66-6.46,9.08-9,9.34-7.05,19.73-12.33,30.28-17.25,10.11-4.72,20.05-9.7,29.2-16.15,15.18-10.7,20.93-21.37,21.72-39.92,2.6,4.39,3.06,9.33,2.81,14.28-.66,13-7.82,22.31-18,29.64-7.6,5.49-16.17,9.18-24.69,12.95-9.28,4.09-18.64,8-27.83,12.28a117.62,117.62,0,0,0-21.83,13.83Z" transform="translate(-138.92 -226.46)"/><path class="cls-1" d="M336,453c-3,5.16-6,10.3-7.93,16-1,3.11-.24,3.86,2.81,3.29a39.37,39.37,0,0,1,21.11,2c10,3.68,12.31,14.28,4.06,21,1.51-6,1.94-11.37-3.95-15.12-1.53,11-4.89,13.9-11.76,10.06,4.08-.5,6.85-2.24,6.31-6.5-.51-4.08-3.43-5.95-7.27-6.28-7.69-.65-14.27,2.32-20.95,7.33,1.7-13.55,5.75-24.86,16.89-32.53Z" transform="translate(-138.92 -226.46)"/><path class="cls-1" d="M279.67,414.21c6.3,22.33-1.33,43.46-19.86,56.17-4.61,3.15-9.74,5.48-13.88,9.43-4,3.79-8.11,7.39-12.45,12.86,3.1-9,8.13-15.37,14.48-19.6,20.68-13.75,31.32-32.51,31.34-57.33A7.19,7.19,0,0,1,279.67,414.21Z" transform="translate(-138.92 -226.46)"/><path class="cls-1" d="M325.94,412c-1.27.62-2.38,2.29-4,1.18-1.08-.75-.83-2.18-.29-3.22,1.23-2.37,2.72-5.4,5.58-4.82,2.06.41,2-.33,3-1.36,2.68-2.82,4.36-6.28,6.65-9.31.73-1,.16-1.36.05-2.07-.3-2-3.38-4.21.66-6,1-.45-1.05-1.6-1.41-2.6-.63-1.74-2.7-3.89-.4-5.15,1.93-1.06,3.53,1.2,4.62,2.87a19,19,0,0,1,1.36,3.25c.26,0,.62.11.81,0,1.44-1,2.61-2.93,4.71-2,1.27.54,1.11,1.87.66,3.05-.88,2.28-2.27,4.1-4.69,4.81-1.35.4-1.69-.56-1.68-1.7,0-1.34,0-3.14-1.94-2.17s.56,1.45.66,2.28c.45,3.66,2.09,4.77,5.48,2.76a2,2,0,0,1,2.71.4c.64,1.09.18,2.23-.6,3.22-2.05,2.62-5.27,3-8.79,3.67,2,2.59,3.47,0,4.9.67.82.36,2.08-.17,2.53,1s-.33,1.93-1.07,2.58c-2.19,2-4.54,3.14-7.65,1.86-.39-.16-2.78-1.44-3,1s1.7,1.33,2.75,1.53,2-.07,3,.17c.72.19,1.71.73,1.9,1.33.36,1.17-.8,1.72-1.66,2.14-2.38,1.17-4.8.35-7.15-.2-.13.46-.33.77-.26,1,.56,1.62,3.69,1.67,2.71,4.1-.45,1.13-2,1.3-3.1,1.12-2.56-.4-5.53-.37-5.86-4.05,3.74-1.12,4-3.27,1.82-6.27Z" transform="translate(-138.92 -226.46)"/><path class="cls-1" d="M293.39,390.91c.68-.72,1.31-1.5,2-2.15,1-.89,2.36-1.9,3.55-1.19s.21,2.47.53,3.63c1,3.56.54,7.62,4.65,10.06,2.76,1.64,3.14,5.07,2.28,8.11-.71,2.53-2.35,1.24-3.25.08-1.61-2.05-1.51-4.65-1.66-7.18-3.3,3-8.37,3.32-11.22.75-.91-.82-2.47-1.73-1.52-3.22.71-1.12,2.17-.48,3.23-.19,1.39.36,2.71,1,5.32,2-1.45-2.33,1.14-6.33-4.19-4.08-1.37.58-2.95-.37-4-1.45-1.32-1.28-3-3.2-2.1-4.66,1.08-1.76,3.05,0,4.26.83,2.4,1.74,2.76,1,2.23-1.45A1.13,1.13,0,0,0,293.39,390.91Z" transform="translate(-138.92 -226.46)"/><path class="cls-1" d="M370.11,365.32c.25,1.34.19,2.44.66,3.22.6,1,1.92,1.82,0,2.57a2.41,2.41,0,0,1-3.14-1.72c-.93-2.6,2.2-8.82,4.68-10s4.4-.74,5.56,1.49-.55,4.22-1.68,5.88c-.82,1.21-2.05-.22-2.85-.93-.5-.44-.68-1,.52-1.07,2.23,0,2.67-1.7,2.41-3.45-.13-.89-1.26-1-2.08-.94a4,4,0,0,0-3.68,2.88A12.32,12.32,0,0,0,370.11,365.32Z" transform="translate(-138.92 -226.46)"/><path class="cls-1" d="M383.65,405.79c5.17-3.16,10.39-6.24,15.47-9.52,2.74-1.77,6.95,1.8,8.91-2.58a2.94,2.94,0,0,1,1.69.52,1.72,1.72,0,0,1,0,2.28c-.9,1.23-2.66,1.7-3.54,1.09-4.16-2.86-8-.16-10.05,2C392.64,403.42,387.64,403.44,383.65,405.79Z" transform="translate(-138.92 -226.46)"/><path class="cls-1" d="M218.91,387.43c-4.89,0-9.82-5.05-9.37-9.15.07-.64.18-1.34,1-1.53s1.17.41,1.37,1,.27,1.3.44,1.93c1.9,6.8,5.15,7.95,11.62,4.49.77-.41,2-2,3.41-.65.46.44,1.42,1,.92,1.48a6.77,6.77,0,0,1-3,1.32C223,386.84,220.73,387.14,218.91,387.43Z" transform="translate(-138.92 -226.46)"/><path class="cls-1" d="M237.56,396.13c.11-1.73-1-3.81,1.94-3.79,3.82,0,4.4,3,4.74,5.69.24,1.8-.71,3.84-3.09,3.65C237.55,401.38,237.14,398.81,237.56,396.13Z" transform="translate(-138.92 -226.46)"/><path class="cls-1" d="M222.56,407.65c-9.66-4.45-20.32-3.07-30.5-4.5,10.51-.18,21.22-1.67,30.78,4.11Z" transform="translate(-138.92 -226.46)"/><path class="cls-1" d="M222.84,407.26c2.1.61,3.94,2.3,6.46.64,1.56-1,3.2.27,4.49,1.3,1.69,1.34,3.21,2.87,4.88,4.23a9.37,9.37,0,0,1,2.77,2.66c-3.64.14-4.74-3.06-7-4.66s-2.2-1.72-5,.08a2,2,0,0,1-1.74-.18c-1.76-1.16-3.44-2.44-5.15-3.68Z" transform="translate(-138.92 -226.46)"/><path class="cls-1" d="M305.83,321.53c-1.44,1.6-2.87,3.2-4.31,4.78a4,4,0,0,1-5,1c-1.07-.49-2.13-1.3-1.64-2.69.72-2.07,2.4-2.33,4.42-2.29a50,50,0,0,0,6.41-.68Z" transform="translate(-138.92 -226.46)"/><path class="cls-1" d="M426.92,383.4c-2.84.21-4.58,2.37-6.44,4-2.48,2.22,0,4.41.73,6.57.91,2.76-.64,3.61-3,3.74a1.38,1.38,0,0,1-1.58-.87,1.11,1.11,0,0,1,.83-1.52c1.8-.43,2.56-1.1,1.62-3.09-.74-1.58-2.5-3.57-1.32-5,1.73-2.08,4.24-3.58,6.59-5.06.93-.59,1.73.62,2.45,1.26Z" transform="translate(-138.92 -226.46)"/><path class="cls-1" d="M430.38,306.94c1.87-.19,3.22.57,5.31,2.3-3.61-.21-4.26,1.13-3.43,3.65a41.39,41.39,0,0,1,1.35,6.27c.22,1.45-.28,2.65-2,2.83-1.19.13-2.41.05-2.82-1.36s.18-2,1.71-2.24c2.07-.31,1.08-2.06,1-3.15C431.16,312.49,430.11,309.83,430.38,306.94Z" transform="translate(-138.92 -226.46)"/><path class="cls-1" d="M162,316.19c-1-1.55-2.22-3.43-.73-4.92s3.76-.57,5.67,0c2.35.63,1.46,2.57,1.67,4.1.37,2.6-1.87,5.56,1.18,7.83.46.35.06,1.23-.69,1.51a3,3,0,0,1-3.25-.57c-.71-.64-1.6-1.48-.26-2.35,1.69-1.09,1.55-2.93,1.63-4.45.1-1.76,1.8-4.1-2-4.92C160.93,311.42,163.69,315.45,162,316.19Z" transform="translate(-138.92 -226.46)"/><path class="cls-1" d="M415.54,281.66c1.42.41,2.86.75,4.26,1.23a2.44,2.44,0,0,1,1.66,3.54c-.62,1.51-1.52,3.09-3.61,2.63-1.77-.39-3.5-.95-5.23-1.5-4.61-1.46-5-2.75-2.06-6.95l.65.8c-.28,1.39-2.29,3.1.3,4,2.3.82,4.58,2.95,7.2,1.27,1-.63,2.67-2.2-.17-3-1.31-.35-2.49-.72-2.94-2.17Z" transform="translate(-138.92 -226.46)"/><path class="cls-1" d="M179.38,286.37c-.45-2.61-1.62-2.49-2.77-.54-.62,1.06-.67,2.46-1.45,3.63-.16-2.16-1.27-4.95,1.08-6.11s4.76.26,6.3,2.54c2.07,3.07,2.41,5.89-1.37,8.5-1.11-2.77,5.31-7.23-1.84-8.12Z" transform="translate(-138.92 -226.46)"/><path class="cls-1" d="M302.81,417.16c-1.67-.29-4.32-.29-4.08-2,.38-2.86,3.57-3.09,5.91-3.58,1.81-.37,3.92,1.18,3.66,2.52C307.81,416.64,305.08,416.9,302.81,417.16Z" transform="translate(-138.92 -226.46)"/><path class="cls-1" d="M239.14,345.15c4.3,1.47,5.43,5,6.65,8.46C240.17,353.68,239.92,353.36,239.14,345.15Zm2.68,3.61c-.3.35-.66.68-.62.74a7,7,0,0,0,.85.95c.18-.22.55-.51.5-.64A5.12,5.12,0,0,0,241.82,348.76Z" transform="translate(-138.92 -226.46)"/><path class="cls-1" d="M193.44,340.76c1.38,0,2.91.75,3.93-1,.75-1.3,1.72-1.44,2.57.05.57,1,.43,2.52-.42,2.5-3.18-.07-3.91,2.55-5.46,4.31a2.39,2.39,0,0,1-3.05.87,2.32,2.32,0,0,1-1.59-2.28c.06-1.09.42-2.16,1.74-1.45.93.51,1.16,2.71,2.84.78,1.33-1.54.53-2.67-.47-3.85Z" transform="translate(-138.92 -226.46)"/><path class="cls-1" d="M386.83,356.91c-.1-.46-.41-1-.27-1.36,2.3-6.43,2.32-6.42.77-12.43,2.1-.09,1.27.25,2.57,3.44,2,4.77-.36,7.38-3.17,10.24Z" transform="translate(-138.92 -226.46)"/><path class="cls-1" d="M297.41,411.73c-2.16-.13-4.9-.78-4.89-2.57,0-2.25,3-2,4.79-2.18s4,.73,3.9,2.76C301.13,411.52,298.92,411.59,297.41,411.73Z" transform="translate(-138.92 -226.46)"/><path class="cls-1" d="M410.71,339.73c-4.7,7.2-4.7,7.2-11.11,1.42-1-.86-1.88-1.75-3.2-3,2.65-.51,3.83,2.78,6.08,1.45l-.1-.09c-.6,2.06.54,2.88,2.27,3.55s2.38-.34,3.3-1.24,1.09-2.52,2.87-2Z" transform="translate(-138.92 -226.46)"/><path class="cls-1" d="M309.78,405.51a4.29,4.29,0,0,1,3.38,2.6c.85,1.61,1.73,3.36,1.26,5.17-.28,1.07-1.7.88-2.61.53-3.18-1.21-3.56-4.06-3.73-6.9C308,406,308.81,405.5,309.78,405.51Z" transform="translate(-138.92 -226.46)"/><path class="cls-1" d="M300.19,377.83a6,6,0,0,1-.21,4.77,5.8,5.8,0,0,1-3.86,3.49c-1,.27-1.38-.54-1.55-1.41a4.3,4.3,0,0,1,1.89-4.69C297.53,379.28,298.68,378.69,300.19,377.83Z" transform="translate(-138.92 -226.46)"/><path class="cls-1" d="M160.18,380.08c6.15,1.48,11.2,5.3,16.73,8.08A68.37,68.37,0,0,1,160.18,380.08Z" transform="translate(-138.92 -226.46)"/><path class="cls-1" d="M194,394.73c-.38,1.73-1.53,2.95-3,2.72-1.72-.26-3.52-1.4-3.43-3.45.07-1.68,1.69-2.41,3.26-2.26C192.54,391.91,193.91,392.79,194,394.73Z" transform="translate(-138.92 -226.46)"/><path class="cls-1" d="M309.73,420.69c-1.28,0-2.54.05-2-1.49,1-2.93,3.68-3.56,6.25-4.26,1-.28,1.84.22,1.5,1.19A7.07,7.07,0,0,1,309.73,420.69Z" transform="translate(-138.92 -226.46)"/><path class="cls-1" d="M318.85,416c4.42-2,6.42.59,8.39,3.08a1,1,0,0,1-.76,1.51C322.71,421.12,321,418.53,318.85,416Z" transform="translate(-138.92 -226.46)"/><path class="cls-1" d="M411.09,366.2c-2.58,3.74-5.41,7.18-10.12,8.31,3.7-2.44,6.56-5.76,9.51-9C410.68,365.77,410.88,366,411.09,366.2Z" transform="translate(-138.92 -226.46)"/><path class="cls-1" d="M392.76,373.69c-1.91,2.55-5.51,1.37-6.91,4.46a1.25,1.25,0,0,0,.11.9c.05.1.47,0,.72,0-.19-.24-.34-.65-.57-.7-3.23-.71-1.37-2.17-.17-2.7A49.93,49.93,0,0,1,392.76,373.69Z" transform="translate(-138.92 -226.46)"/><path class="cls-1" d="M381.64,317.71a4,4,0,0,1,.18-.93c1-2.27,2.53-3.9,5.28-3a1.89,1.89,0,0,1,1.12,2.8c-1.35,2.91-3.48,2.25-5.69,1.13a2.78,2.78,0,0,0-1-.07Z" transform="translate(-138.92 -226.46)"/><path class="cls-1" d="M369.67,338.72c1.12-5.68,1.19-11.75,5.83-16.17.21.23.43.46.66.67-3.69,4.5-3.39,10.7-6.58,15.42Z" transform="translate(-138.92 -226.46)"/><path class="cls-1" d="M188,374.26c4.25,2,8.37,4.26,12.81,5.89a23,23,0,0,1-13.35-5.42Z" transform="translate(-138.92 -226.46)"/><path class="cls-1" d="M433.7,353.76a38,38,0,0,1-10.41,7.91l-.78-1.1,10.5-7.48Z" transform="translate(-138.92 -226.46)"/><path class="cls-1" d="M191.64,371.56c4.16.85,7.72,3.91,12.32,3.22-2.89,2.23-7.88.86-12.24-3.31Z" transform="translate(-138.92 -226.46)"/><path class="cls-1" d="M202.32,311c-1.17,2.6-1.78,4.19-2.59,5.67-.49.91-1,2.4-2.52,1.35a2.31,2.31,0,0,1-.31-3.81C198.13,313.09,199.81,312.45,202.32,311Z" transform="translate(-138.92 -226.46)"/><path class="cls-1" d="M384.67,385.57c3.86-.27,6.2-3.81,9.93-4.36-2.83,2.39-5,6.23-9.83,4.25Z" transform="translate(-138.92 -226.46)"/><path class="cls-1" d="M169.56,390.57A21.91,21.91,0,0,1,158.47,385a28.43,28.43,0,0,1,11,5.64Z" transform="translate(-138.92 -226.46)"/><path class="cls-1" d="M236.56,342.63c-4.4,3.67-4.4,3.67-6.84-.56l6.94.63Z" transform="translate(-138.92 -226.46)"/><path class="cls-1" d="M369.58,338.64c-.1,3.64-2.19,6.24-4.67,8.64a15.51,15.51,0,0,1,4.76-8.56Z" transform="translate(-138.92 -226.46)"/><path class="cls-1" d="M169.48,390.66c3.61.6,5.85,3.24,8,6l-7.94-6.1Z" transform="translate(-138.92 -226.46)"/><path class="cls-1" d="M380.3,329.15c-.36,1.91-2.39,1.36-3.47,2.23-.48.38-1.35-.61-1.19-1.18a4,4,0,0,1,2.91-3.11C379.92,326.8,379.78,328.33,380.3,329.15Z" transform="translate(-138.92 -226.46)"/><path class="cls-1" d="M228.54,363.67c2.47,2.38,2.16,5.92,3.61,8.72-2.85-2.25-2.9-5.65-3.53-8.81Z" transform="translate(-138.92 -226.46)"/><path class="cls-1" d="M424,354l8-6,.79.85a27.35,27.35,0,0,1-8,6Z" transform="translate(-138.92 -226.46)"/><path class="cls-1" d="M208.57,352.63c-1.26,1.69-2.78,2.24-4.64,1-.83-.57-1.66-1.25-1.21-2.43a1.91,1.91,0,0,1,1-1c1.48-.53,1.49.53,1.67,1.57.43,2.31,2.23.32,3.22.94Z" transform="translate(-138.92 -226.46)"/><path class="cls-1" d="M191.55,301.65c1.86,2.72,4.07,4.92,7.59,5.29-3.48-.45-8.09.66-7.52-5.37Z" transform="translate(-138.92 -226.46)"/><path class="cls-1" d="M374.54,411.08a13.75,13.75,0,0,1,7.88-3.66L375.33,412Z" transform="translate(-138.92 -226.46)"/><path class="cls-1" d="M427.48,385.71c2,3.38,1.58,4-3.75,4.94.64-2.31,4.4-2.12,3.85-5Z" transform="translate(-138.92 -226.46)"/><path class="cls-1" d="M209.49,351.55c1.19-1.67,3-2.34,4.8-3.11.74-.33,1.77-1.47,2.24.16a1.54,1.54,0,0,1-1.56,2c-2-.32-3.4.86-5.08,1.32C209.76,351.79,209.62,351.68,209.49,351.55Z" transform="translate(-138.92 -226.46)"/><path class="cls-1" d="M198.66,369.53c2.48.34,4.93,2.45,7.42.77-2.48,1.06-5,2.32-7.34-.88Z" transform="translate(-138.92 -226.46)"/><path class="cls-1" d="M178.14,362.09c2.25,1.46,4.77,2.56,6.2,5.11a17.48,17.48,0,0,1-6.89-4.45Q177.81,362.44,178.14,362.09Z" transform="translate(-138.92 -226.46)"/><path class="cls-1" d="M405.63,302.68c-.13-3.13,2.11-5.13,3.52-7.52-.53,2.81-1.32,5.49-3.61,7.44Z" transform="translate(-138.92 -226.46)"/><path class="cls-1" d="M177.5,290.59a18.56,18.56,0,0,1-1,3.16c-.81,1.53-1.93.53-2.9.11-.59-.25-1.36-.6-1.06-1.37.46-1.18,1.21-1.05,2.29-.47,1.29.7,1.71-1.19,2.81-1.35Z" transform="translate(-138.92 -226.46)"/><path class="cls-1" d="M188.64,335.55c2.08,1.3,4.25,2.5,4.8,5.21l.09-.08c-2.27-.92-3.7-2.88-5.47-4.42C188.26,336,188.45,335.79,188.64,335.55Z" transform="translate(-138.92 -226.46)"/><path class="cls-1" d="M179.49,327.69c-1.82-1.28-3.92-2.24-4.75-4.65,2,1.12,4.73,1.35,4.65,4.74Z" transform="translate(-138.92 -226.46)"/><path class="cls-1" d="M411.52,326.57c.08,2.82-1.93,4.46-3.57,6.31l-.39-.26a13.23,13.23,0,0,1,4-6Z" transform="translate(-138.92 -226.46)"/><path class="cls-1" d="M190.58,300.62c-2.81.11-4.71-1.9-7-3l-.08.05a7.11,7.11,0,0,1,7.07,3Z" transform="translate(-138.92 -226.46)"/><path class="cls-1" d="M180.18,357c2,1.34,4.06,2.54,5.49,4.55a8.17,8.17,0,0,0-.63.69l-5.6-4.47Z" transform="translate(-138.92 -226.46)"/><path class="cls-1" d="M228.66,357.53a8.38,8.38,0,0,1,4.1,3.93l-.85.77-3.86-4C228.26,358,228.46,357.77,228.66,357.53Z" transform="translate(-138.92 -226.46)"/><path class="cls-1" d="M239.43,374.77a8.66,8.66,0,0,1-3.91-3.89l1.22-1.25c1.12,1.48,2.23,3,3.35,4.43C239.86,374.29,239.64,374.53,239.43,374.77Z" transform="translate(-138.92 -226.46)"/><path class="cls-1" d="M220.45,332.76l-4.43-3.6c.24-.24.48-.48.73-.71l4.37,3.66C220.89,332.32,220.67,332.54,220.45,332.76Z" transform="translate(-138.92 -226.46)"/><path class="cls-1" d="M400.82,300.92c-.91-2.7,1-4.26,2.46-6,.08,2.35-1.35,4.06-2.55,5.87Z" transform="translate(-138.92 -226.46)"/><path class="cls-1" d="M410.56,280.61c2.33-2.83,3.48-.05,5,1.05l.06-.08c-1.5,1.05-2.91-.61-4.39-.17Z" transform="translate(-138.92 -226.46)"/><path class="cls-1" d="M404.65,337.68c-.25-2.39,1.23-3.78,2.91-5.06l.39.26c-.63,1.93-1.36,3.78-3.37,4.72Z" transform="translate(-138.92 -226.46)"/><path class="cls-1" d="M431.94,348a8.53,8.53,0,0,1,4.56-2.7,7.16,7.16,0,0,1-3.77,3.55Z" transform="translate(-138.92 -226.46)"/><path class="cls-1" d="M242.28,372.91c2.45-.74,2.86,2.16,4.63,2.64-2-.12-3.2-1.52-4.53-2.74Z" transform="translate(-138.92 -226.46)"/><path class="cls-1" d="M237.66,379.74c0-1.71-2.17-1.89-2.55-3.8a6,6,0,0,1,4.57,3.56l-.11.13h-2Z" transform="translate(-138.92 -226.46)"/><path class="cls-1" d="M198.74,369.42c-2.46.85-3.65-.94-5-2.41a8.75,8.75,0,0,1,4.92,2.52Z" transform="translate(-138.92 -226.46)"/><path class="cls-1" d="M402.62,307.67c.07-2.22.83-4,3-5l-.09-.08a7.4,7.4,0,0,1-3,5Z" transform="translate(-138.92 -226.46)"/><path class="cls-1" d="M384.77,385.46c-2.06-.22-3.87,1.56-6.54.71,2.41-1,4.21-2.67,6.44-.6Z" transform="translate(-138.92 -226.46)"/><path class="cls-1" d="M410.48,365.54c.46-1.63,1.08-3.12,3.34-3.44l-2.73,4.1C410.88,366,410.68,365.77,410.48,365.54Z" transform="translate(-138.92 -226.46)"/><path class="cls-1" d="M179.44,357.76a7.39,7.39,0,0,1-4.09-2.83c2.22-.53,3.37,1.14,4.83,2.06C179.93,357.24,179.69,357.5,179.44,357.76Z" transform="translate(-138.92 -226.46)"/><path class="cls-1" d="M437.12,357.26c-1.1.84-1.85,2.3-3.73,2.12.53-1.65,1.82-2.25,3.11-2.83C436.7,356.79,436.91,357,437.12,357.26Z" transform="translate(-138.92 -226.46)"/><path class="cls-1" d="M213.48,326.73c-.93-.41-2-.69-2.13-2,1.46-.61,1.94.68,2.75,1.26C213.89,326.23,213.68,326.48,213.48,326.73Z" transform="translate(-138.92 -226.46)"/><path class="cls-1" d="M239.68,379.5c1.61,0,2.7.92,4.11,2.8-2.22-.5-3.4-1.26-4.22-2.67Z" transform="translate(-138.92 -226.46)"/><path class="cls-1" d="M186.47,334.74a6.92,6.92,0,0,1-3.19-2.79l.34-.38c1.51.33,2.39,1.53,3.46,2.45Z" transform="translate(-138.92 -226.46)"/><path class="cls-1" d="M392.49,311.89a5.89,5.89,0,0,1,2.76-3.9C395.58,310.13,394.43,310.86,392.49,311.89Z" transform="translate(-138.92 -226.46)"/><path class="cls-1" d="M225.57,361.63c-1.23-.55-2.82-.76-2.91-3.48,1.64,1.25,3.46,1.29,2.87,3.56Z" transform="translate(-138.92 -226.46)"/><path class="cls-1" d="M232.76,361.46c1.1,1,2.17,2,1.46,4.07-.89-1.26-1.6-2.28-2.31-3.3Z" transform="translate(-138.92 -226.46)"/><path class="cls-1" d="M412.6,325.66c-.61-1.57.65-2.39,1.57-3.76.65,2-.55,2.84-1.61,3.72Z" transform="translate(-138.92 -226.46)"/><path class="cls-1" d="M228.05,358.24l-3.22-2.06c2.13-.89,2.92.39,3.83,1.35C228.46,357.77,228.26,358,228.05,358.24Z" transform="translate(-138.92 -226.46)"/><path class="cls-1" d="M179.39,327.78c1.32,0,2.08.58,2,2,0,.13-.52.38-.73.32-1.24-.34-.76-1.58-1.15-2.37Z" transform="translate(-138.92 -226.46)"/><path class="cls-1" d="M177.45,362.75a2.78,2.78,0,0,1-2.47-1.88c1.6-.93,2.22.56,3.16,1.22Q177.81,362.44,177.45,362.75Z" transform="translate(-138.92 -226.46)"/><path class="cls-1" d="M397.39,304.43c.63,1.61-.19,2.53-1.51,3.81-.33-2.08.78-2.82,1.6-3.71A.9.9,0,0,1,397.39,304.43Z" transform="translate(-138.92 -226.46)"/><path class="cls-1" d="M400.63,310.71c-.45-1.74.37-2.65,2-3l-.06-.05a3.49,3.49,0,0,1-2,3Z" transform="translate(-138.92 -226.46)"/><path class="cls-1" d="M423,356.2l-1.95,2.09c-.64-1.5.2-2.24,1.31-2.86Z" transform="translate(-138.92 -226.46)"/><path class="cls-1" d="M429.06,363.24c-1,.61-1.69,1.89-3.29,1.46.26-1.62,1.61-1.75,2.68-2.21Z" transform="translate(-138.92 -226.46)"/><path class="cls-1" d="M430.13,361.08c.86-.45,1.48-2.18,2.6-.85.31.36-1,1.37-2,1.57Z" transform="translate(-138.92 -226.46)"/><path class="cls-1" d="M240.09,374.06c.69.84,2.41,1.2,1.3,2.85l.08-.13c-.83-.52-1.76-.93-2-2C239.64,374.53,239.86,374.29,240.09,374.06Z" transform="translate(-138.92 -226.46)"/><path class="cls-1" d="M376.39,321.45a2.57,2.57,0,0,1,2.12-1.89l.4.45-1.85,2.1C376.84,321.88,376.61,321.67,376.39,321.45Z" transform="translate(-138.92 -226.46)"/><path class="cls-1" d="M187.48,374.73c-.76-.1-1.79-.37-1.16-1.24.5-.69,1.29.11,1.7.78Z" transform="translate(-138.92 -226.46)"/><path class="cls-1" d="M398.58,312.64c.26-1.09.4-2.32,2.05-1.93l-.08-.1c-.2,1.13-.54,2.12-2,2Z" transform="translate(-138.92 -226.46)"/><path class="cls-1" d="M224.52,327.69c-.85-.29-2.14-.95-1.54-1.63s1.38.55,1.92,1.19Z" transform="translate(-138.92 -226.46)"/><path class="cls-1" d="M436.5,356.55c.5-.75,1.3-2,2-1.31s-.69,1.43-1.35,2C436.91,357,436.7,356.79,436.5,356.55Z" transform="translate(-138.92 -226.46)"/><path class="cls-1" d="M433,353.09c.49-.47,1.26-1,1.66-.42.56.8-.36.95-1,1.09Z" transform="translate(-138.92 -226.46)"/><path class="cls-1" d="M230.67,333.56c-1.66.49-1.75-.88-2.19-1.85l.41-.36a3,3,0,0,1,1.67,2.29Z" transform="translate(-138.92 -226.46)"/><path class="cls-1" d="M192.63,366a2.76,2.76,0,0,1-.52.47c-.09.05-.38-.09-.38-.14a2.76,2.76,0,0,1,.11-.69Z" transform="translate(-138.92 -226.46)"/><path class="cls-1" d="M411.57,337.62a1.94,1.94,0,0,1,1.28-1.76s.34.49.27.59c-.39.58-.58,1.53-1.65,1.1Z" transform="translate(-138.92 -226.46)"/><path class="cls-1" d="M241.57,371.61a2.6,2.6,0,0,1-2-2l0,0c1.63-.25,2.17.53,1.93,2.05Z" transform="translate(-138.92 -226.46)"/><path class="cls-1" d="M386.73,356.8l-1.3,1.25c0-.15-.13-.36-.07-.44.38-.44.56-1.34,1.46-.71Z" transform="translate(-138.92 -226.46)"/><path class="cls-1" d="M238.57,368.63a1.22,1.22,0,0,1-1.16-1.2c0-.12.44-.45.5-.41.56.38,1.5.65.66,1.62Z" transform="translate(-138.92 -226.46)"/><path class="cls-1" d="M238.65,340.29l-.64.51a3.56,3.56,0,0,1-.29-.7c0-.07.22-.31.26-.29A5.53,5.53,0,0,1,238.65,340.29Z" transform="translate(-138.92 -226.46)"/><path class="cls-1" d="M427.58,385.64c-.91-.54-1.67-1.12-.67-2.23l-.1.06c.51.66,1.1,1.3.67,2.24Z" transform="translate(-138.92 -226.46)"/><path class="cls-1" d="M240.78,448.86c-.4.68-1.27,1-1.58.44-.45-.77.64-.73,1.07-1Z" transform="translate(-138.92 -226.46)"/><path class="cls-1" d="M288,485.15c.4-.42.81-.84,1.21-1.27.7.86.19,1.39-.51,1.87Z" transform="translate(-138.92 -226.46)"/><path class="cls-1" d="M177.6,290.67c.08-.79,0-1.64,1-2l-.09-.08c.3,1,.22,1.76-1,2Z" transform="translate(-138.92 -226.46)"/><path class="cls-1" d="M189.39,370.83a1.72,1.72,0,0,1,2.25.74l.08-.1a1.74,1.74,0,0,1-2.23-.73Z" transform="translate(-138.92 -226.46)"/><path class="cls-1" d="M399.43,301.49a1.5,1.5,0,0,1-.82,2.15l.09.09a1.64,1.64,0,0,1,.82-2.14Z" transform="translate(-138.92 -226.46)"/><path class="cls-1" d="M424.75,354.82,423,356.2l-.64-.77L424,354Z" transform="translate(-138.92 -226.46)"/><path class="cls-1" d="M179.33,286.27c-.28.77.53,2-.87,2.29l.09.08.84-2.26Z" transform="translate(-138.92 -226.46)"/><path class="cls-1" d="M169.58,351.62c.83,0,1.63.08,2,1l.06-.06c-1,.37-1.9.36-2-1.06Z" transform="translate(-138.92 -226.46)"/><path class="cls-1" d="M169.63,351.52c-.39.6-.75.29-1.07-.06a.42.42,0,0,1,.06-.41c.58-.26.83.06,1,.57Z" transform="translate(-138.92 -226.46)"/><path class="cls-1" d="M428.45,362.49l1.68-1.41.59.72-1.66,1.44Z" transform="translate(-138.92 -226.46)"/><path class="cls-1" d="M260.72,406.5c.43.56.86,1.11,1.28,1.67l-.53.57L260,407.08Z" transform="translate(-138.92 -226.46)"/><path class="cls-1" d="M243.58,377.63c.59,0,1.19,0,1.36.75,0,.05-.25.24-.37.23-.64-.05-1.23-.19-.93-1.07Z" transform="translate(-138.92 -226.46)"/><path class="cls-1" d="M234.64,368.57c-.55.22-.81,0-.87-.55,0-.11.13-.24.2-.36l.57,1Z" transform="translate(-138.92 -226.46)"/><path class="cls-1" d="M262.54,409.66l.82.94-.61.26-.12-1.3Z" transform="translate(-138.92 -226.46)"/><path class="cls-1" d="M243.64,377.54c-1,.45-1.57-.15-2.17-.77l-.08.14c1.13-1,1.67-.15,2.19.72Z" transform="translate(-138.92 -226.46)"/><path class="cls-1" d="M256.12,420.07c.44.72.78,1.7.05,2.11-.51.29-.72-.74-.82-1.32Z" transform="translate(-138.92 -226.46)"/><path class="cls-1" d="M227.63,362.57c-1.09.56-1.65,0-2.06-.94l0,.08c1.28-1,1.58.12,2,.94Z" transform="translate(-138.92 -226.46)"/><path class="cls-1" d="M376.71,387.76l-1.58,1.52-.67-.75,1.61-1.45C376.28,387.31,376.49,387.54,376.71,387.76Z" transform="translate(-138.92 -226.46)"/><path class="cls-1" d="M372.15,391.2l1.38-1.62a7.44,7.44,0,0,0,.59.67c-.46.52-.91,1-1.36,1.57Z" transform="translate(-138.92 -226.46)"/><path class="cls-1" d="M187.08,334l1.56,1.53c-.19.24-.38.48-.58.71l-1.59-1.52Z" transform="translate(-138.92 -226.46)"/><path class="cls-1" d="M230.56,333.64c1,.45,1.41,1.12.87,2.17l.07-.11c-.77-.52-1.46-1.07-.83-2.14Z" transform="translate(-138.92 -226.46)"/><path class="cls-1" d="M414.19,333.79l.16.34-.52.15a1.51,1.51,0,0,1,.08-.38C414,333.83,414.09,333.82,414.19,333.79Z" transform="translate(-138.92 -226.46)"/><path class="cls-1" d="M214.1,326l1.56,1.56a8.59,8.59,0,0,0-.68.67l-1.5-1.49C213.68,326.48,213.89,326.23,214.1,326Z" transform="translate(-138.92 -226.46)"/><path class="cls-1" d="M410.82,339.81c-.73-1.06-.18-1.69.75-2.19l-.1-.07c.46,1,0,1.64-.77,2.18Z" transform="translate(-138.92 -226.46)"/><path class="cls-1" d="M190.57,300.63a.92.92,0,0,1,1,1l.07-.08c-1,.35-1.28,0-1-.95Z" transform="translate(-138.92 -226.46)"/><path class="cls-1" d="M399.52,301.59c.24-.6.45-1.23,1.29-.68l-.08-.1c-.32.44-.57,1-1.29.68Z" transform="translate(-138.92 -226.46)"/><path class="cls-1" d="M398.61,303.64c-.22.54-.33,1.26-1.22.79a.9.9,0,0,0,.09.1l1.22-.8Z" transform="translate(-138.92 -226.46)"/><polygon class="cls-1" points="191.72 388.17 191.82 388.34 191.67 388.19 191.72 388.17"/><path class="cls-1" d="M201.26,308.11c-.1.09-.2.26-.3.26s-.2-.18-.3-.28c.1-.09.21-.26.31-.25S201.16,308,201.26,308.11Z" transform="translate(-138.92 -226.46)"/><path class="cls-1" d="M397.6,313.64a.89.89,0,0,1,1-1l0,0c.06.78-.25,1.14-1.06.95Z" transform="translate(-138.92 -226.46)"/><path class="cls-1" d="M238.57,368.64c1-.28,1.24.1,1,1l0,0-1-1Z" transform="translate(-138.92 -226.46)"/><path class="cls-1" d="M234.54,368.64l.73.51-.55.32c0-.3-.06-.6-.08-.9Z" transform="translate(-138.92 -226.46)"/><path class="cls-1" d="M173.93,353.91c.1,0,.23,0,.3,0s.1.19.14.29l-.6,0Z" transform="translate(-138.92 -226.46)"/><path class="cls-1" d="M171.57,352.64l.81.61c-.13.07-.27.21-.38.18-.5-.1-.63-.4-.37-.85Z" transform="translate(-138.92 -226.46)"/><path class="cls-1" d="M381.56,317.61l-.53.71-.27-.58.88,0Z" transform="translate(-138.92 -226.46)"/><path class="cls-1" d="M209.89,351.91l-1.32.72h0c-.28-.85.29-1,.91-1.08C209.62,351.68,209.76,351.79,209.89,351.91Z" transform="translate(-138.92 -226.46)"/><path class="cls-1" d="M378.51,319.56a6.31,6.31,0,0,1,.82-.68c.82.7-.14.79-.42,1.12Z" transform="translate(-138.92 -226.46)"/><path class="cls-1" d="M305.74,321.63l-.09-.2.17.11Z" transform="translate(-138.92 -226.46)"/><path class="cls-1" d="M375.5,322.55l.89-1.1c.22.22.45.43.67.66l-.9,1.11C375.93,323,375.71,322.78,375.5,322.55Z" transform="translate(-138.92 -226.46)"/><path class="cls-1" d="M412.56,325.62c-.06.63-.09,1.29-1,.95l.08.09c0-.61.08-1.25,1-1Z" transform="translate(-138.92 -226.46)"/><path class="cls-1" d="M185.67,361.54c.46.14.87.41.5.89-.11.14-.74-.13-1.13-.2A8.17,8.17,0,0,1,185.67,361.54Z" transform="translate(-138.92 -226.46)"/><path class="cls-1" d="M372.76,391.82c-.28.25-.76.77-.81.72-.7-.52-.2-.93.2-1.34Z" transform="translate(-138.92 -226.46)"/><path class="cls-1" d="M376.07,387.08c.52-.33,1-.76,1.61-.09l-1,.77C376.49,387.54,376.28,387.31,376.07,387.08Z" transform="translate(-138.92 -226.46)"/><path class="cls-1" d="M228.62,363.58c-.76.09-1.22-.12-1-1l-.09.08c.6.08,1,.36,1,1Z" transform="translate(-138.92 -226.46)"/><path class="cls-1" d="M262.63,409.56c-.86.39-1-.22-1.16-.82l.53-.57.54,1.49Z" transform="translate(-138.92 -226.46)"/><path class="cls-1" d="M365.68,408.74l-.64.66-.15-1.28Z" transform="translate(-138.92 -226.46)"/><path class="cls-1" d="M236.66,342.7l-.06-.81.62.18-.66.56Z" transform="translate(-138.92 -226.46)"/><path class="cls-1" d="M227.51,330.69l-1-1,.55-.44.84,1Z" transform="translate(-138.92 -226.46)"/><path class="cls-1" d="M226.51,329.69l-1-1,.41-.34,1.12.93Z" transform="translate(-138.92 -226.46)"/><path class="cls-1" d="M403.4,338.53l-1,1,.1.08,1-1Z" transform="translate(-138.92 -226.46)"/><path class="cls-1" d="M225.53,328.67a1,1,0,0,1-1-1l.38-.44,1,1.08Z" transform="translate(-138.92 -226.46)"/><path class="cls-1" d="M242.38,372.81l-.81-1.2-.09.09c.94-.05,1.24.32.8,1.2A.81.81,0,0,0,242.38,372.81Z" transform="translate(-138.92 -226.46)"/><path class="cls-1" d="M215.66,327.55l1.09.9c-.25.23-.49.47-.73.71l-1-1C215.2,328,215.42,327.76,215.66,327.55Z" transform="translate(-138.92 -226.46)"/><path class="cls-1" d="M189.49,370.74a2.34,2.34,0,0,1-.24-.31c0-.05,0-.15,0-.22l.12.62Z" transform="translate(-138.92 -226.46)"/><path class="cls-1" d="M404.58,337.6l-1.18.93.1.09,1.15-.95Z" transform="translate(-138.92 -226.46)"/><path class="cls-1" d="M226.55,337.66l.65.45-.59.18c0-.25,0-.5,0-.74Z" transform="translate(-138.92 -226.46)"/><path class="cls-1" d="M225.58,336.62a1,1,0,0,1,1,1l.08-.11c-.67.53-1,0-1.35-.43A5.09,5.09,0,0,1,225.58,336.62Z" transform="translate(-138.92 -226.46)"/><path class="cls-1" d="M183.28,332l-.46-.91c.54-.23.7.11.8.53Z" transform="translate(-138.92 -226.46)"/><path class="cls-1" d="M231.43,335.81l.69-.08c-.26.82-.41.1-.61,0Z" transform="translate(-138.92 -226.46)"/><path class="cls-1" d="M225.28,337.12l-1.26-.94a6.57,6.57,0,0,0,.59-.59l1,1A5.09,5.09,0,0,0,225.28,337.12Z" transform="translate(-138.92 -226.46)"/><path class="cls-1" d="M254.33,419.87l-1-1,1-.81c.31.34.61.67.9,1Z" transform="translate(-138.92 -226.46)"/><path class="cls-1" d="M224,336.18c-.24-.43-1.18-.72-.3-1.33.08-.06.58.48.89.74A6.57,6.57,0,0,1,224,336.18Z" transform="translate(-138.92 -226.46)"/><path class="cls-1" d="M255.35,420.86l-1-1,.93-.8.86,1Z" transform="translate(-138.92 -226.46)"/><path class="cls-1" d="M250.89,448l-.35-.09.42.08Z" transform="translate(-138.92 -226.46)"/><path class="cls-1" d="M335.3,452.35l1.05-.49L336,453Z" transform="translate(-138.92 -226.46)"/><path class="cls-1" d="M397.5,313.57c-.05.24-.11.48-.16.73-.83-.57,0-.51.26-.66Z" transform="translate(-138.92 -226.46)"/><path class="cls-1" d="M221.12,332.11c.25.42,1.22.71.31,1.32-.13.08-.65-.43-1-.67C220.67,332.54,220.89,332.32,221.12,332.11Z" transform="translate(-138.92 -226.46)"/><path class="cls-1" d="M183.58,297.62l-.58-.54.67-.1c0,.23-.11.46-.17.69Z" transform="translate(-138.92 -226.46)"/><path class="cls-1" d="M373.53,389.58l.93-1.05.67.75-1,1A7.44,7.44,0,0,1,373.53,389.58Z" transform="translate(-138.92 -226.46)"/><path class="cls-1" d="M228.48,331.71l-1-1,.39-.44,1,1.1Z" transform="translate(-138.92 -226.46)"/></svg>