<svg id="Layer_1" data-name="Layer 1" xmlns="http://www.w3.org/2000/svg" viewBox="0 0 2194 1105"><defs><style>.cls-1{fill:#161513;}.cls-17,.cls-18,.cls-2{fill:#f4f2cd;}.cls-3{fill:#fff;}.cls-4{fill:#002030;}.cls-5{fill:#def1f8;}.cls-6{fill:#291d51;}.cls-7{fill:#bce3f6;}.cls-8{fill:#2d2979;}.cls-9{fill:#f28c00;}.cls-10{fill:#fecb2f;}.cls-11{fill:none;stroke:#bce3f6;stroke-miterlimit:10;stroke-width:0.3px;}.cls-12{fill:#90c8ee;}.cls-13{fill:#fab300;}.cls-14{fill:#ef772b;}.cls-15{fill:#ffda60;}.cls-16{fill:#d7b262;}.cls-17{font-size:70.48px;}.cls-17,.cls-18{font-family:MaiandraGD-Regular, Maiandra GD;}.cls-18{font-size:26.34px;}</style></defs><title>Background</title><rect class="cls-1" width="2194" height="1105"/><rect class="cls-2" x="1079.73" y="10.57" width="2.39" height="626.82"/><rect class="cls-2" x="1058.25" y="10.57" width="2.39" height="626.82"/><rect class="cls-2" x="1036.77" y="10.57" width="2.39" height="626.82"/><rect class="cls-2" x="1123.39" y="10.57" width="2.39" height="626.82"/><rect class="cls-2" x="1101.92" y="10.57" width="2.39" height="626.82"/><rect class="cls-2" x="1144.87" y="10.57" width="2.39" height="626.82"/><path class="cls-2" d="M663.69,14.67h4q28.19-.11,56.36-.25c.77,0,1,.19,1,1,0,11.91.06,23.82,0,35.74a24.21,24.21,0,0,1-1,6.26c-.88,3.17-2,6.27-3.13,9.36a18,18,0,0,1-1.46,2.55A30.78,30.78,0,0,1,710,79.65a34.19,34.19,0,0,1-11.33,5,15.64,15.64,0,0,1-8.42-.53A30.94,30.94,0,0,1,685,82.25,36.28,36.28,0,0,1,672.5,72.19a37.52,37.52,0,0,1-3.27-4.66c-1-1.8-1.66-3.82-2.67-5.64-1.38-2.5-1.73-5.29-2.55-8a8.64,8.64,0,0,1-.33-2.54q0-17.32,0-34.63Zm60.49.89H664.64c0,.32,0,.53,0,.75,0,11.69,0,23.39.07,35.08a20.77,20.77,0,0,0,1.07,5.76,36.77,36.77,0,0,0,2.54,6.24,58.43,58.43,0,0,0,4.93,8.2A22.1,22.1,0,0,0,678.49,77c1.33.88,2.5,2,3.87,2.82,1.61,1,3.36,1.66,5,2.49a18,18,0,0,0,7.76,1.84,17.14,17.14,0,0,0,7.5-1.64A37.32,37.32,0,0,0,712,76.94a28.41,28.41,0,0,0,6.17-7.26c.17-.29.38-.56.54-.86a52.91,52.91,0,0,0,2.47-4.94,37.42,37.42,0,0,0,1.81-6,45.43,45.43,0,0,0,1.23-8.39c.14-11.07.06-22.15.06-33.23C724.23,16,724.2,15.78,724.18,15.56Z" transform="translate(127 6)"/><path class="cls-2" d="M660.91,80.48c.49-1.23,1.09-2.34-.07-3.48-.28-.28-.27-.94-.26-1.42a18.31,18.31,0,0,1,2.31-8.79,13.58,13.58,0,0,1,.84-1.49.58.58,0,0,1,1,0c.81,1.09,1.65,2.15,2.41,3.25a1.15,1.15,0,0,1,.07.93c-.9,2.34-1.11,1.42.47,3.58a36,36,0,0,0,5.94,6c2.79,2.39,5.89,4.41,8.88,6.56a6.1,6.1,0,0,0,1.31.47l.25-2.16c1.11.5,2.15,1,3.22,1.45,2.31.93,4.62,1.84,6.95,2.72a2,2,0,0,0,1.26,0c2.41-.9,4.82-1.84,7.21-2.8,1-.4,2-.89,3-1.38l.19,2.26c1.08-.67,2-1.16,2.88-1.78q2.64-1.94,5.19-4c1.79-1.44,3.57-2.9,5.28-4.44a26.09,26.09,0,0,0,2.26-2.54,17.81,17.81,0,0,1,1.29-1.56.89.89,0,0,0,.16-1.22c-.25-.49-.55-1-.76-1.45a.72.72,0,0,1,.11-.63c.88-1.15,1.77-2.29,2.71-3.38a.91.91,0,0,1,.86.07,12.15,12.15,0,0,1,1,1.62,15.9,15.9,0,0,1,2.13,9.19,2,2,0,0,1-.37,1.21,1.5,1.5,0,0,0-.12,2,1.53,1.53,0,0,1-.39,2A90.12,90.12,0,0,1,717.73,91c-2.2,1.68-4.3,3.59-7.06,4.47-1.27.41-2.45,1.09-3.7,1.59a8.52,8.52,0,0,1-4.37.26,1.32,1.32,0,0,0-1,.24,9.58,9.58,0,0,1-5.94,2.41,10.56,10.56,0,0,1-6.21-1.4.2.2,0,0,1-.08,0c-1-1.32-2.44-1.09-3.9-1-2.32.17-4.35-.84-6.4-1.81a45.45,45.45,0,0,1-9.46-6.54c-1.77-1.46-3.3-3.2-5-4.8-.48-.47-1.06-.85-1.52-1.34C662.37,82.21,661.64,81.31,660.91,80.48Zm41.66,15.7a6,6,0,0,0,3.64.09c4.18-.88,7.59-3.29,10.78-5.85,3.47-2.78,6.54-6.06,9.8-9.1a1.81,1.81,0,0,0,.53-2.44,1.35,1.35,0,0,1,.37-1.88,2.08,2.08,0,0,0,.74-2.16,36.82,36.82,0,0,0-1-4.31c-.51-1.47-1.28-2.86-2-4.37L723.21,69c.08.09.15.16.2.23.83,1.24,1,2.28.36,3-1.66,1.84-3,3.94-5.06,5.45-1,.72-1.73,1.66-2.66,2.41-2,1.58-4,3.13-6.07,4.63a10.56,10.56,0,0,1-3.63,2.12,14.62,14.62,0,0,0-3.23,1.4,1.34,1.34,0,0,0-.53,1C702.55,91.54,702.57,93.85,702.57,96.18Zm-38.33-30c-.31.63-.5,1-.73,1.44a16.43,16.43,0,0,0-2.16,7.47c0,.58,0,1.42.42,1.72,1.06.86.8,1.77.39,2.73a1.13,1.13,0,0,0,.29,1.4,84.52,84.52,0,0,0,12.29,11,27,27,0,0,0,6.54,3.71c1.65.56,3.26,1.31,5.1.9a.75.75,0,0,0,.7-.87c0-2.1,0-4.19,0-6.29a1.53,1.53,0,0,0-.39-1,5.12,5.12,0,0,0-3.52-1.6,2,2,0,0,1-1-.36c-1.16-.8-2.31-1.64-3.44-2.48-2.07-1.55-4.24-3-6.15-4.7-2.1-1.89-4-4-5.89-6.12-1.52-1.65-1.48-1.71-.48-3.7a4.69,4.69,0,0,1,.26-.43Zm20.84,19.23-.21.18c.15.23.24.55.45.69a19.16,19.16,0,0,0,1.92,1.11,1.73,1.73,0,0,1,1.1,1.79c-.09,2.18-.07,4.38-.05,6.57a1.29,1.29,0,0,0,.36,1,12.25,12.25,0,0,0,3.51,1.93,19.43,19.43,0,0,0,4.77.18,5.9,5.9,0,0,0,4-1.9,2.33,2.33,0,0,0,.57-1.46c0-2.18,0-4.37,0-6.56a1.23,1.23,0,0,1,.71-1.27,20,20,0,0,0,2.11-1.31,3.42,3.42,0,0,0,.62-.73c-2.24.74-4.34,1.56-6.43,2.42-1.84.76-3.58,1.69-5.7.63s-4.56-2-6.84-2.92C685.64,85.64,685.36,85.55,685.08,85.44Z" transform="translate(127 6)"/><path class="cls-2" d="M666.64,17.74H693.3c0,1.93,0,3.86,0,5.79,0,5.5,0,11,0,16.48,0,.79-.22,1-1,1-8,0-16.05,0-24.07,0-.54,0-.73.18-.7.69,0,.34,0,.67,0,1.08h53.65V41c-.27,0-.48,0-.68,0-7.91,0-15.81,0-23.71,0-.59,0-1,0-1-.82,0-7.25,0-14.51,0-21.76,0-.21,0-.41.07-.71H721.9V39c0,3.92.09,7.84,0,11.75a28.57,28.57,0,0,1-2.16,10.82c-.71,1.63-1.29,3.33-2.08,4.92a25.84,25.84,0,0,1-6.46,8.34,36.86,36.86,0,0,1-6.76,4.61,20.65,20.65,0,0,1-8.4,2.6,20.06,20.06,0,0,1-5.68-.95,26.88,26.88,0,0,1-9.79-5,34.48,34.48,0,0,1-6.46-6.7,45.24,45.24,0,0,1-5-8.81c-.87-1.91-1.18-4.08-1.89-6.07a13.85,13.85,0,0,1-.55-4.82V18.43C666.68,18.25,666.66,18.07,666.64,17.74Zm.93,25.82c0,2,.1,3.84,0,5.71-.19,3.16.77,6.09,1.67,9a32.53,32.53,0,0,0,1.68,4,35.4,35.4,0,0,0,7.43,10.78,36.51,36.51,0,0,0,6.79,5,26.91,26.91,0,0,0,7.49,2.76,7.77,7.77,0,0,0,3.17.4c3.1-.6,6.23-1.2,9-2.9a31.68,31.68,0,0,0,4.91-3.21,28.59,28.59,0,0,0,5-5.41A38.71,38.71,0,0,0,721,52.89c.26-2.7.18-5.42.25-8.14,0-.38,0-.77,0-1.19ZM692.2,18.48H667.67V38.24l.29.1a16.54,16.54,0,0,0,.91-1.84A10.4,10.4,0,0,1,670,34a27,27,0,0,0,2.14-5l-.33-.19-1.29,1.36.19-2.41-1,.74c-.48-1.22.87-1.19,1.24-1.81l-.12-.23-1.25.44-.12-.27,2.52-1.29-1.63-.64-.34-.35c.26-.09.55-.29.78-.25.69.13,1.35.36,2.1.56.42-1.31-1.47-.82-1.66-1.76.83-.4,1.37,0,1.87.59.72-.92-.22-1.44-.41-2.16,1.54-.09,1.6,1.35,2.37,2.38a8.6,8.6,0,0,1,1-1.27,3.91,3.91,0,0,1,1.42-.76,4.3,4.3,0,0,1,1.37.09l0,.28a7.3,7.3,0,0,0-.81,0,3.17,3.17,0,0,0-.8.22c-.77.34-1.24,1.23-.86,1.72.52.65.28.9-.49,1l.67,2.58-.23.08-.89-1.12-.2.14.2,1.85-.89-.54-.24,3.19H674a11.66,11.66,0,0,0-.14-1.68,4,4,0,0,0-.54-1c-.28.23-.73.42-.82.71a20.32,20.32,0,0,0-.82,3.49c-.23,2-.08,2.12,1.92,2.36,0,0,.08.07.24.23L667.76,40c.36,0,.67.13,1,.14.71,0,1.42,0,2.13,0a2.26,2.26,0,0,0,2.07-.76c1.59-2,3.32-3.83,5-5.77.5-.59.27-1.13-.49-1.42l-.53-.22.81-1-1.27-.08-.12-1.2,4.29-1.3c.07,0,.1-.15.18-.2.66-.45,1.31-.95,2.18-.64a2.48,2.48,0,0,1,.5.32c-.16.15-.3.37-.49.43a7,7,0,0,0-1.51.37c-.37.22-.56.73-.83,1.11a3.65,3.65,0,0,1,.81.34,12.25,12.25,0,0,1,1,.91l-.19.27L681,31.17l.84,1-1.58-.38.91,2.65a3.14,3.14,0,0,0,1.14.16,15,15,0,0,1,2.69.34c.72.2,1.3.46,1.54-.55l.67.19c.87.22,1.66.48,1,1.67,0,.1.22.52.4.57s.43-.19.63-.34.42-.39.63-.59c.25.27.62.5.71.82s-.1.71-.12,1.08a.93.93,0,0,0,.13.63c.43.4.92.75,1.42,1.14,0-.08.17-.18.17-.28,0-1.94,0-3.88-.06-5.82a.72.72,0,0,0-.38-.52c-.75-.27-1.51-.48-2.4-.76.61-.34,1.18-.72.7-1.64l1.25.19c0-.92,1.32-1.51.69-2.65l-.83.58a12.14,12.14,0,0,0-.65-1.48c-.1-.17-.49-.35-.63-.28a5.51,5.51,0,0,0-1.1.78c-.93.75-.92.75-1.19-.42.47-.56,1.49-.81,1-1.94.93.26,1.75.51,2.59.7s1.11,0,.87-1c-.72-.06-1.45-.09-2.18-.19a2.18,2.18,0,0,1-1.85-.94,1.74,1.74,0,0,1,2.17-.28c.66.29,1,.08,1.4-.54C692.63,21.57,692.11,20,692.2,18.48Zm5.61,11.34c1.6-1.49,3-2.74,4.33-4,1.49-1.45,2.92-3,4.39-4.43a1,1,0,0,1,.5-.22c2.47-.51,4.94-1,7.41-1.52,1.27-.27,2.54-.57,3.81-.86l0-.25H696.92V40.09a6.51,6.51,0,0,0,.68.08q11.43,0,22.86,0c.64,0,.84-.16.84-.83,0-3.64,0-7.28,0-10.93V26H721c0,.6,0,1.2-.11,1.79a2.89,2.89,0,0,1-.26,1.35C719.2,31,717.7,32.8,716.2,34.6c-.91,1.1-1.87,2.16-2.82,3.25L710,35.78a7.77,7.77,0,0,0-4.42-1.39,2.16,2.16,0,0,1-1.41-.62,11.83,11.83,0,0,0-3.66-2.7C699.71,30.74,698.93,30.34,697.81,29.82Zm8.47,3.28c1.94.93,3.82,1.82,5.69,2.74.43.21.89.74,1.24.67s.64-.7.95-1.09l.06-.07q2.52-3,5-6c.38-.44.37-.73-.07-1.15a9.42,9.42,0,0,0-4.82-2.32,1.13,1.13,0,0,0-.82.28c-.87.73-1.7,1.5-2.53,2.27-1.09,1-2.17,2-3.24,3.08C707.25,32.07,706.73,32.63,706.28,33.1Zm-6.78-3.71L705.1,33l8-7.7c-1.18-.85-2.27-1.75-3.48-2.45a5.13,5.13,0,0,0-2.43-.72c-.42,0-.85.75-1.28,1.16,0,0-.07.1-.11.14C703.74,25.4,701.67,27.34,699.5,29.39ZM691,40.16l.2-.34c-.51-.37-1-.78-1.53-1.1-.72-.42-1.47-.77-2.21-1.13a40.26,40.26,0,0,0-3.93-1.87,9.74,9.74,0,0,0-5.19.08,2.41,2.41,0,0,0-2.15,1.51c.2.09.44.28.61.24,1.66-.44,2.83.84,4.25,1.19.34.09.55.64.85.94s.47.46.71.46C685.44,40.17,688.23,40.16,691,40.16Zm30.11-20.82-.37-.19-5.88,5.67,5.44,2.83Zm-11.67,2,0,.33,4.26,3,5.49-5.23-.13-.25ZM678.7,40.11c.2-.86,0-1.27-.81-1.37a18.53,18.53,0,0,0-2.1-.15c-1.19,0-1.52.25-1.93,1.52Zm.8-6.12.77.67c.14-.19.42-.41.4-.57a4.42,4.42,0,0,0-.44-1Z" transform="translate(127 6)"/><path class="cls-2" d="M716.55,83.69c-.38-.62-1-1.31-.92-1.54a4.1,4.1,0,0,1,1.57-1.25,9.15,9.15,0,0,1,1.32-.37c.9-.32,1.78-.69,2.69-1-.17,1.59,1.38,2.28,2.2,3.43-.9.47-.9.47-2.17-.76L720,83.48l1.77.81a1.87,1.87,0,0,1-2.12-.32c-.48-.59-.15-1.08.22-1.57a3.09,3.09,0,0,0,.63-1.22l-2.23,2.33,2.32,2.55c-.7.57-1.24.59-1.74-.13s-.93-1.29-1.4-1.93l-.3,0c0,.27,0,.59.07.79.52.86,1.1,1.69,1.67,2.53-.86.39-1.16.15-2.75-2.2l-.71.42L718,88.51l-.21.33L716,88.16a1.53,1.53,0,0,1-2,.33s-.34.3-.34.46a7.19,7.19,0,0,0,.2,1.11,11.89,11.89,0,0,1-1.69,0c-.28,0-.52-.36-.67-.75l1.8.7c-.28-.63-.67-1.09-.62-1.49s.52-.77.71-1.35a3.91,3.91,0,0,0-.81.32c-.6.43-1.16.92-1.76,1.36a3,3,0,0,1-.61.24c0-.26-.11-.58,0-.75a3.3,3.3,0,0,1,.81-.72c1.57-1.12,3.15-2.22,4.72-3.32l-.11-.28H713.8c.07-.47.35-.55,1.26-.4A13.25,13.25,0,0,0,716.55,83.69Zm-.22-1.34c.52.16,1,.48,1.19.35A17,17,0,0,0,719.28,81,3.16,3.16,0,0,0,716.33,82.35Zm-2.53,4.2c.28.49.44.82.65,1.13.09.13.28.33.37.3s.43-.26.41-.37a1.9,1.9,0,0,0-.4-1.1C714.63,86.34,714.13,86.53,713.8,86.55Z" transform="translate(127 6)"/><path class="cls-2" d="M722.77,80.05c-.22-.36-.46-.58-.43-.75s.29-.41.45-.61c.2.19.55.36.57.56S723.06,79.67,722.77,80.05Z" transform="translate(127 6)"/><path class="cls-2" d="M679.32,93.12a10.32,10.32,0,0,1,.83-1.4,12.39,12.39,0,0,1,1.33-1.23l-.74-.6-2.87,2.65c-.52-1.11.92-1.23,1-2-.92-1.05-1.25-.89-2.11,1l-.25,0a10.15,10.15,0,0,1,.47-2c.33-.71.92-.67,1.89-.06.34.22.72.73,1.15-.1l-2.46-1.92L675,90.83l-.37-.18.28-1.36c-.35-.38-.78-.88-1.24-1.34a1,1,0,0,0-.57-.18A1.07,1.07,0,0,1,672,86.54a1.75,1.75,0,0,1,.84-1.27c.59-.29,1.08.19,1.38.76,0,.08,0,.2.12.24.24.14.49.26.74.38,0-.29.2-.72.07-.84-.77-.69-1.61-1.32-2.4-2l-2.6,3.3c-.48-.67-.62-1.15,0-1.69a14.33,14.33,0,0,0,1.48-1.64,1,1,0,0,0,0-.82,1.52,1.52,0,0,1-2.17.2c-.82-.46-.72.43-.79,1h1.44l.13.28-1.6,1.74a9.33,9.33,0,0,0-.39-1.8,1.18,1.18,0,0,1,.41-1.55c.29-.2.81-.08,1.23-.07s.64.06,1,.09l.1-.25a10.17,10.17,0,0,1-1.13-1c-.17-.2-.16-.54-.24-.82a7.37,7.37,0,0,1,.84.21c.12,0,.19.23.34.41a2,2,0,0,1,.36-.47c.38-.25.91-.74,1.14-.63.42.2.68.76,1,1.18a.32.32,0,0,1,0,.27c-.55,1.34.31,1.82,1.27,2.5,2.72,2,5.33,4.05,8,6.08a6.22,6.22,0,0,0,.88.49l-.17.45c-2-.51-2.57,1.13-3.62,2.08Zm-4.84-5.5,0,.3c.46.07,1,.31,1.36.18s.5-.65.74-1l-.21-.17Zm-2.33-5,.48-.21L672.26,81a5.12,5.12,0,0,0-.71.4A11.19,11.19,0,0,0,672.15,82.58Zm1.56,4.74.16-.29c-.17-.49-.3-1.06-1-.88-.15,0-.24.34-.35.53Z" transform="translate(127 6)"/><path class="cls-2" d="M666,76.72l1.15,1.5.34-.13L667,75.93c.52-.19,1.06.23,1,1,0,.4-.2.78-.21,1.18a4.74,4.74,0,0,0,.2,1c.05.23.09.47.14.7a6.63,6.63,0,0,1-.67-.25c-.11,0-.17-.18-.43-.46a4.29,4.29,0,0,1-.31.57,2.71,2.71,0,0,1-.41.35c-1.25-1-1.25-1-1.77-.25L666,80.78l-1.18,1.07-.36,0c.7-1-.11-1.39-.37-2-.1-.24.2-.79.47-1a1.47,1.47,0,0,1,1.08-.15c.29,0,.54.33.9.57.12-.79-.41-1.08-.79-1.48a2.29,2.29,0,0,1-.27-.72Z" transform="translate(127 6)"/><path class="cls-2" d="M682,87.77c.44,1,.83,1.87,2.1,1.39-.31.82-.76.84-1.29.63C681.86,89.42,681.7,89.09,682,87.77Z" transform="translate(127 6)"/><path class="cls-2" d="M698,92.55c-1.78,1.29-.58,2.89-1,4.18-.93.1-.93.1-1.12-1.88h-1.28l.5,1.36a2.15,2.15,0,0,1-1.68-2.08c.65,0,1.32-.06,2-.14.19,0,.35-.24.53-.36-.16-.19-.29-.48-.48-.53-.35-.09-.74,0-1.09,0a6.85,6.85,0,0,1-1-.38l.08-.34h2.48L696,92l-1.21-.94c.14-.11.39-.41.49-.36.35.15.86.38.91.66a1,1,0,0,0,1.18.9C697.59,92.27,697.79,92.44,698,92.55Z" transform="translate(127 6)"/><path class="cls-2" d="M703.67,76a4.8,4.8,0,0,1-3.4,1.86,50.86,50.86,0,0,1-6.52.42,27.05,27.05,0,0,1-5.19-.8,6.94,6.94,0,0,1-1.9-1.07.56.56,0,0,1,0-1,10.17,10.17,0,0,1,2.2-1.07,17.68,17.68,0,0,1,2.49-.49,18.94,18.94,0,0,0,0-8.57,7.88,7.88,0,0,0-3-4.28,28,28,0,0,0-2.9-2.2,31.82,31.82,0,0,0-3.4-1.58c-2-.9-4.15-1.72-6.14-2.74a4.33,4.33,0,0,1-1.49-1.81c-1.28-2.36-1.64-4.15.21-6.4l.67-.88c.29.88.54,1.66.79,2.45s.42,1.49.7,2.2a4,4,0,0,1,0,3.83,8.33,8.33,0,0,0,1,0c4.19-.59,8.36-1.39,12.57-1.72a58,58,0,0,1,9.12.26,29.83,29.83,0,0,1,6.25,1.07,7.16,7.16,0,0,0,4.41-.39,10,10,0,0,1,5.64-.26,2.57,2.57,0,0,1,1.59,1.43,3.13,3.13,0,0,1-.6,3.36c-2.52,2.51-5.7,3.49-9.08,4.09a29.32,29.32,0,0,1-7.37-.06c-1.66-.12-1.7,0-2.51,1.49-.93,1.73-.78,3.58-.73,5.42,0,1.51.2,3,.25,4.52,0,.55.25.72.76.81a24,24,0,0,1,3.59.82A9.67,9.67,0,0,1,703.67,76ZM680.61,54.57l0,.47c2.58.34,5.14.83,7.73,1,3.48.21,7,.2,10.45.17a27.8,27.8,0,0,0,4.64-.51c.56-.1,1-.64,1.54-1a5,5,0,0,0-1.53-.82,49.53,49.53,0,0,0-6.86-.61c-4,.07-8,.38-12.06.66C683.24,54,681.93,54.35,680.61,54.57Zm21.29,5.37a2.8,2.8,0,0,0,.68.14c2.3-.33,4.62-.59,6.89-1.06a14.4,14.4,0,0,0,3.75-1.41,2.36,2.36,0,0,0,.91-1.65A1.45,1.45,0,0,0,713,54.43,5,5,0,0,0,709,55c-1.33.67-2.6,1.48-3.89,2.25A19.31,19.31,0,0,0,703,58.61,8.63,8.63,0,0,0,701.9,59.94ZM674.81,48.05a5.13,5.13,0,0,0,.91,5.13C676.69,52.46,676.16,49.52,674.81,48.05Z" transform="translate(127 6)"/><path class="cls-3" d="M645.51,562.87a1.78,1.78,0,0,1-1.88,1.72,1.88,1.88,0,0,1-1.56-2.09,1.8,1.8,0,0,1,1.89-1.73A1.88,1.88,0,0,1,645.51,562.87Z" transform="translate(127 6)"/><path class="cls-3" d="M771.93,547.18a1.8,1.8,0,0,1-1.9,1.74,1.88,1.88,0,0,1-1.57-2.11,1.79,1.79,0,0,1,1.9-1.74A1.88,1.88,0,0,1,771.93,547.18Z" transform="translate(127 6)"/><path class="cls-3" d="M695.13,406.26a1.43,1.43,0,0,1-1.51,1.38,1.5,1.5,0,0,1-1.24-1.67,1.43,1.43,0,0,1,1.51-1.38A1.49,1.49,0,0,1,695.13,406.26Z" transform="translate(127 6)"/><path class="cls-3" d="M797.78,421.49a2,2,0,0,1-2.09,1.91,2.06,2.06,0,0,1-1.72-2.32,2,2,0,0,1,2.08-1.9A2.07,2.07,0,0,1,797.78,421.49Z" transform="translate(127 6)"/><path class="cls-3" d="M1321.43,585.36a1.79,1.79,0,0,1-1.9,1.73A1.88,1.88,0,0,1,1318,585a1.79,1.79,0,0,1,1.9-1.73A1.88,1.88,0,0,1,1321.43,585.36Z" transform="translate(127 6)"/><path class="cls-3" d="M650.52,424.6a1.37,1.37,0,0,1-1.46,1.33,1.45,1.45,0,0,1-1.2-1.61,1.39,1.39,0,0,1,1.46-1.34A1.45,1.45,0,0,1,650.52,424.6Z" transform="translate(127 6)"/><path class="cls-3" d="M679.44,442.21a1.41,1.41,0,0,1-1.48,1.35,1.46,1.46,0,0,1-1.21-1.63,1.4,1.4,0,0,1,1.47-1.35A1.47,1.47,0,0,1,679.44,442.21Z" transform="translate(127 6)"/><path class="cls-3" d="M734.44,486a1.34,1.34,0,0,1-1.4,1.28,1.4,1.4,0,0,1-1.16-1.56,1.33,1.33,0,0,1,1.4-1.28A1.4,1.4,0,0,1,734.44,486Z" transform="translate(127 6)"/><path class="cls-3" d="M617.42,475.43a1.77,1.77,0,0,1-1.87,1.71,1.86,1.86,0,0,1-1.54-2.07,1.77,1.77,0,0,1,1.87-1.71A1.86,1.86,0,0,1,617.42,475.43Z" transform="translate(127 6)"/><path class="cls-3" d="M1004.53,451.2a1.35,1.35,0,0,0,1.13,1.52,1.29,1.29,0,0,0,1.37-1.25,1.35,1.35,0,0,0-1.13-1.52A1.29,1.29,0,0,0,1004.53,451.2Z" transform="translate(127 6)"/><path class="cls-3" d="M965.07,430.9a1.27,1.27,0,0,0,1,1.42,1.2,1.2,0,0,0,1.28-1.17,1.27,1.27,0,0,0-1-1.41A1.21,1.21,0,0,0,965.07,430.9Z" transform="translate(127 6)"/><path class="cls-3" d="M939.44,414.08a1.19,1.19,0,0,0,1,1.34,1.15,1.15,0,0,0,1.22-1.1,1.2,1.2,0,0,0-1-1.34A1.14,1.14,0,0,0,939.44,414.08Z" transform="translate(127 6)"/><path class="cls-3" d="M904.8,402.94a1.17,1.17,0,0,0,1,1.31,1.12,1.12,0,0,0,1.18-1.08,1.17,1.17,0,0,0-1-1.31A1.12,1.12,0,0,0,904.8,402.94Z" transform="translate(127 6)"/><path class="cls-3" d="M877.82,406a1.56,1.56,0,0,0,1.3,1.74,1.47,1.47,0,0,0,1.56-1.43,1.55,1.55,0,0,0-1.29-1.74A1.49,1.49,0,0,0,877.82,406Z" transform="translate(127 6)"/><path class="cls-3" d="M844.61,476a1.24,1.24,0,0,0,1,1.39,1.18,1.18,0,0,0,1.26-1.14,1.25,1.25,0,0,0-1-1.4A1.2,1.2,0,0,0,844.61,476Z" transform="translate(127 6)"/><path class="cls-3" d="M926.78,510.62a2.11,2.11,0,0,0,1.74,2.34,2,2,0,0,0,2.11-1.93,2.1,2.1,0,0,0-1.74-2.34A2,2,0,0,0,926.78,510.62Z" transform="translate(127 6)"/><path class="cls-3" d="M904.86,486.74a1.47,1.47,0,0,0,1.22,1.66,1.41,1.41,0,0,0,1.49-1.37,1.47,1.47,0,0,0-1.22-1.65A1.41,1.41,0,0,0,904.86,486.74Z" transform="translate(127 6)"/><path class="cls-3" d="M772.78,465.46a1.94,1.94,0,0,0,1.6,2.16,1.84,1.84,0,0,0,1.94-1.78,1.93,1.93,0,0,0-1.6-2.15A1.84,1.84,0,0,0,772.78,465.46Z" transform="translate(127 6)"/><path class="cls-3" d="M687.55,522.89a1.71,1.71,0,0,0,1.43,1.92,1.63,1.63,0,0,0,1.73-1.58,1.72,1.72,0,0,0-1.43-1.92A1.63,1.63,0,0,0,687.55,522.89Z" transform="translate(127 6)"/><path class="cls-3" d="M641.26,484.33a1.37,1.37,0,0,0,1.14,1.54,1.31,1.31,0,0,0,1.39-1.27,1.38,1.38,0,0,0-1.15-1.53A1.3,1.3,0,0,0,641.26,484.33Z" transform="translate(127 6)"/><path class="cls-3" d="M617.75,452.12a1.44,1.44,0,0,1,1.52-1.39,1.51,1.51,0,0,1,1.24,1.69A1.43,1.43,0,0,1,619,453.8,1.5,1.5,0,0,1,617.75,452.12Z" transform="translate(127 6)"/><path class="cls-3" d="M719.35,387.55a1.48,1.48,0,0,1,1.57-1.43,1.55,1.55,0,0,1,1.29,1.74,1.48,1.48,0,0,1-1.57,1.43A1.55,1.55,0,0,1,719.35,387.55Z" transform="translate(127 6)"/><path class="cls-3" d="M689.52,473.24a1.24,1.24,0,0,1,1.31-1.21,1.31,1.31,0,0,1,1.09,1.46,1.26,1.26,0,0,1-1.32,1.21A1.3,1.3,0,0,1,689.52,473.24Z" transform="translate(127 6)"/><path class="cls-3" d="M800.19,479.14a1.1,1.1,0,0,1,1.16-1.06,1.15,1.15,0,0,1,1,1.29,1.1,1.1,0,0,1-1.16,1.06A1.15,1.15,0,0,1,800.19,479.14Z" transform="translate(127 6)"/><path class="cls-3" d="M901.79,512.83a1.12,1.12,0,0,1,1.19-1.09,1.19,1.19,0,0,1,1,1.32,1.14,1.14,0,0,1-1.2,1.09A1.19,1.19,0,0,1,901.79,512.83Z" transform="translate(127 6)"/><path class="cls-3" d="M922.42,522a.89.89,0,0,1,.94-.86.94.94,0,0,1,.77,1.05.89.89,0,0,1-.94.86A.93.93,0,0,1,922.42,522Z" transform="translate(127 6)"/><path class="cls-3" d="M936.54,495.82a.85.85,0,0,1,.9-.82.88.88,0,0,1,.73,1,.84.84,0,0,1-.89.82A.89.89,0,0,1,936.54,495.82Z" transform="translate(127 6)"/><path class="cls-3" d="M847.23,467.28a1.23,1.23,0,0,1,1.3-1.19,1.29,1.29,0,0,1,1.07,1.44,1.23,1.23,0,0,1-1.3,1.19A1.3,1.3,0,0,1,847.23,467.28Z" transform="translate(127 6)"/><path class="cls-3" d="M819.51,504.37a1.22,1.22,0,0,1,1.28-1.18,1.29,1.29,0,0,1,1.07,1.43,1.22,1.22,0,0,1-1.29,1.17A1.26,1.26,0,0,1,819.51,504.37Z" transform="translate(127 6)"/><path class="cls-3" d="M921.94,452.3a1,1,0,0,1,1.08-1,1.08,1.08,0,0,1,.9,1.2,1,1,0,0,1-1.09,1A1.08,1.08,0,0,1,921.94,452.3Z" transform="translate(127 6)"/><path class="cls-3" d="M1039.8,400.49a2,2,0,0,1-1.15,2.4,1.71,1.71,0,0,1-2.16-1.28,2,2,0,0,1,1.15-2.39A1.71,1.71,0,0,1,1039.8,400.49Z" transform="translate(127 6)"/><path class="cls-3" d="M1094.61,398.1a1.56,1.56,0,0,1-.92,1.91,1.36,1.36,0,0,1-1.73-1,1.58,1.58,0,0,1,.92-1.92A1.37,1.37,0,0,1,1094.61,398.1Z" transform="translate(127 6)"/><path class="cls-3" d="M1084.25,404.16a2.17,2.17,0,0,1-1.27,2.65,1.89,1.89,0,0,1-2.39-1.41,2.17,2.17,0,0,1,1.27-2.65A1.89,1.89,0,0,1,1084.25,404.16Z" transform="translate(127 6)"/><path class="cls-3" d="M1142.38,609.31a2,2,0,0,1-1.16,2.41,1.71,1.71,0,0,1-2.16-1.28,2,2,0,0,1,1.15-2.41A1.71,1.71,0,0,1,1142.38,609.31Z" transform="translate(127 6)"/><path class="cls-3" d="M1065.62,477.29a1.52,1.52,0,0,1-.89,1.85,1.32,1.32,0,0,1-1.67-1,1.52,1.52,0,0,1,.89-1.85A1.32,1.32,0,0,1,1065.62,477.29Z" transform="translate(127 6)"/><path class="cls-3" d="M1098.41,481.27a1.51,1.51,0,0,1-.9,1.86,1.32,1.32,0,0,1-1.68-1,1.53,1.53,0,0,1,.9-1.86A1.33,1.33,0,0,1,1098.41,481.27Z" transform="translate(127 6)"/><path class="cls-3" d="M956.9,583.33a1.45,1.45,0,0,1-.85,1.78,1.27,1.27,0,0,1-1.61-.94,1.45,1.45,0,0,1,.86-1.78A1.26,1.26,0,0,1,956.9,583.33Z" transform="translate(127 6)"/><path class="cls-3" d="M983.52,497.12a1.94,1.94,0,0,1-1.14,2.37,1.7,1.7,0,0,1-2.14-1.26,2,2,0,0,1,1.14-2.38A1.7,1.7,0,0,1,983.52,497.12Z" transform="translate(127 6)"/><path class="cls-3" d="M1327.54,413.38a1.23,1.23,0,0,0,1.57.92,1.42,1.42,0,0,0,.83-1.74,1.23,1.23,0,0,0-1.57-.92A1.42,1.42,0,0,0,1327.54,413.38Z" transform="translate(127 6)"/><path class="cls-3" d="M1302.32,394a1.15,1.15,0,0,0,1.46.86,1.33,1.33,0,0,0,.77-1.62,1.16,1.16,0,0,0-1.46-.86A1.33,1.33,0,0,0,1302.32,394Z" transform="translate(127 6)"/><path class="cls-3" d="M1140.78,412a1.42,1.42,0,0,0,1.79,1.06,1.64,1.64,0,0,0,1-2,1.42,1.42,0,0,0-1.8-1.06A1.63,1.63,0,0,0,1140.78,412Z" transform="translate(127 6)"/><path class="cls-3" d="M1207.21,437.57a1.15,1.15,0,0,0,1.44.85,1.31,1.31,0,0,0,.76-1.6A1.13,1.13,0,0,0,1208,436,1.3,1.3,0,0,0,1207.21,437.57Z" transform="translate(127 6)"/><path class="cls-3" d="M1251.42,413.6a1.9,1.9,0,0,0,2.41,1.42,2.2,2.2,0,0,0,1.28-2.68,1.91,1.91,0,0,0-2.41-1.42A2.19,2.19,0,0,0,1251.42,413.6Z" transform="translate(127 6)"/><path class="cls-3" d="M1294,466.53a1.35,1.35,0,0,0,1.7,1,1.54,1.54,0,0,0,.91-1.89,1.35,1.35,0,0,0-1.7-1A1.55,1.55,0,0,0,1294,466.53Z" transform="translate(127 6)"/><path class="cls-3" d="M1137.24,458.4a1.76,1.76,0,0,0,2.22,1.31,2,2,0,0,0,1.18-2.46,1.76,1.76,0,0,0-2.22-1.31A2,2,0,0,0,1137.24,458.4Z" transform="translate(127 6)"/><path class="cls-3" d="M1127.3,537.4a1.56,1.56,0,0,0,2,1.17,1.81,1.81,0,0,0,1.06-2.2,1.58,1.58,0,0,0-2-1.17A1.81,1.81,0,0,0,1127.3,537.4Z" transform="translate(127 6)"/><path class="cls-3" d="M982.38,564.51a1.26,1.26,0,0,0,1.59.93,1.43,1.43,0,0,0,.84-1.76,1.24,1.24,0,0,0-1.58-.93A1.44,1.44,0,0,0,982.38,564.51Z" transform="translate(127 6)"/><path class="cls-3" d="M975.77,475.44a1.58,1.58,0,0,1,.93-1.92,1.37,1.37,0,0,1,1.73,1,1.58,1.58,0,0,1-.92,1.92A1.38,1.38,0,0,1,975.77,475.44Z" transform="translate(127 6)"/><path class="cls-3" d="M1094.63,498.27a1.62,1.62,0,0,1,.95-2,1.41,1.41,0,0,1,1.79,1.05,1.63,1.63,0,0,1-.95,2A1.42,1.42,0,0,1,1094.63,498.27Z" transform="translate(127 6)"/><path class="cls-3" d="M1118.44,505.64a1.36,1.36,0,0,1,.8-1.67,1.2,1.2,0,0,1,1.51.89,1.37,1.37,0,0,1-.8,1.67A1.19,1.19,0,0,1,1118.44,505.64Z" transform="translate(127 6)"/><path class="cls-3" d="M1167.28,459.39a1.21,1.21,0,0,1,.71-1.47,1.05,1.05,0,0,1,1.33.78,1.21,1.21,0,0,1-.71,1.47A1.06,1.06,0,0,1,1167.28,459.39Z" transform="translate(127 6)"/><path class="cls-3" d="M1300.13,491.92a1.24,1.24,0,0,1,.73-1.51,1.09,1.09,0,0,1,1.36.81,1.23,1.23,0,0,1-.73,1.51A1.09,1.09,0,0,1,1300.13,491.92Z" transform="translate(127 6)"/><path class="cls-3" d="M1284.05,437.91a1,1,0,0,1,.57-1.2.86.86,0,0,1,1.08.64,1,1,0,0,1-.57,1.19A.86.86,0,0,1,1284.05,437.91Z" transform="translate(127 6)"/><path class="cls-3" d="M1326.35,461.45a.92.92,0,0,1,.55-1.13.8.8,0,0,1,1,.6.92.92,0,0,1-.54,1.13A.81.81,0,0,1,1326.35,461.45Z" transform="translate(127 6)"/><path class="cls-3" d="M1206.63,428.44a1.35,1.35,0,0,1,.79-1.64,1.17,1.17,0,0,1,1.49.87,1.35,1.35,0,0,1-.79,1.65A1.18,1.18,0,0,1,1206.63,428.44Z" transform="translate(127 6)"/><path class="cls-3" d="M1219,498.18a1.34,1.34,0,0,1,.78-1.63,1.16,1.16,0,0,1,1.47.87,1.33,1.33,0,0,1-.78,1.63A1.16,1.16,0,0,1,1219,498.18Z" transform="translate(127 6)"/><path class="cls-3" d="M1253.3,473.07a1,1,0,0,1,.61-1.26.91.91,0,0,1,1.14.67,1,1,0,0,1-.61,1.26A.89.89,0,0,1,1253.3,473.07Z" transform="translate(127 6)"/><path class="cls-3" d="M1269.62,469.73a1.58,1.58,0,0,1,.93-1.93,1.36,1.36,0,0,1,1.73,1,1.57,1.57,0,0,1-.92,1.92A1.38,1.38,0,0,1,1269.62,469.73Z" transform="translate(127 6)"/><path class="cls-3" d="M1270.47,395.07a1.12,1.12,0,0,1,.66-1.37,1,1,0,0,1,1.24.73,1.12,1.12,0,0,1-.66,1.37A1,1,0,0,1,1270.47,395.07Z" transform="translate(127 6)"/><ellipse class="cls-2" cx="1096.12" cy="499.65" rx="148.87" ry="165.1"/><path class="cls-4" d="M825.7,425.08s-7.52,4.56-9.4,6c-.83.62-11.95,7.61-11.95,7.61s8.63,6.14,10.68,15.4c0,0-6.07-11.13-11-12.73,0,0,4.77,36.34,5.35,39.29s4,4.3,4,4.3L803,516.33h4.44s6.7,70,6.91,75.36.22,7.71-1.9,11.18-1,6,.19,6.94,2.32,2.89-1.35,4.43-19.27,8.1-19.27,8.1H824.4l2.31-4.82v4.82h5.39v-6.75c0-2.5,2.13-5,1.36-8.86s-2.7-5.79-2.7-14.27-1.35-22.93,0-35.08,1.35-35.27,4-39.51c0,0,7.71,23.51,12.91,43.75s7.71,30.07,6.17,36.63-4,10-1.93,13.29a26.75,26.75,0,0,1,2.87,5.59v5.21h4.84v-4.82l2.51,4.82h33.34s-21.78-10-23.32-11.76,0-2.12,1.74-4.63-.77-3.85-1.35-9.25-7.52-119.89-7.13-133.76S860.29,429,860.29,429l-10.83-3.93Z" transform="translate(127 6)"/><path class="cls-5" d="M847.16,480.61l-2-5.27-13-34L837.62,431,851,427.5s5.21,22,5.55,27.36-2.89,25.21-2.89,25.21Z" transform="translate(127 6)"/><path class="cls-6" d="M836.51,433.11l5.23,4.89,4.57,19.76-1.16,17.58,2,5.27.34.8,5.12,1.49,1-2.83s1.16-7.13,1.16-7.52S853.67,460,853,456.86s-8.25-19.46-8.25-19.46l.83-5.56-7.93-.8Z" transform="translate(127 6)"/><polygon class="cls-7" points="956.46 425.18 952.7 431.08 959.1 447.32 964.62 437.04 956.46 425.18"/><path class="cls-8" d="M817,483.33c-5.33-3.15-8.24-5.76-9.78-17.64.93,7.09,1.88,13.75,2.11,14.92.57,2.95,4,4.3,4,4.3,8.83,4,33.24,10.91,33.24,10.91S822.38,486.47,817,483.33Z" transform="translate(127 6)"/><path class="cls-9" d="M865.68,475.39c1.49,9.61-.33,19.52-5.92,23.59-6.24,4.55-16.63,17.82-16.63,17.82l3,13.53s14-6.29,17.1,6.84c2.7,11.33-3.56,20.12-17.09,24.23,0,0,1,50.86,51.84,39.7s30.46-57.75,30.46-57.75c-14,1.93-23.37-3.44-25.66-14.86-2.64-13.23,12.67-13.36,12.67-13.36-.69-2.54-3-13.53-3-13.53s-15.19-7.75-22.56-9.23c-6.77-1.36-12.58-9.59-15.24-18.95" transform="translate(127 6)"/><path class="cls-10" d="M925.45,529.82c-14,1.92-23.38-3.44-25.66-14.86-2.65-13.23,12.66-13.36,12.66-13.36-4.64-17-16.87-21-25.52-22.76-6.78-1.36-12.58-9.6-15.25-18.95s-16.4-62.66-18.28-76.49a3.84,3.84,0,0,0,3.51-1.58c1.39-1.91-1-1.86-1.54-3.43s.3-1,.28-3-3.21-1.13-3.24-2.91,1.57-2,1.28-4.19-3.27-2.64-6.9-1.78l-.28.06-.28.06c-3.66.74-6.18,2.4-5.52,4.51s2.2,1.63,2.91,3.26-2.56,2.14-1.72,4,1.33,1,1.52,2.62-2,2.61,0,3.76a3.83,3.83,0,0,0,3.85,0c4.08,13.35,13.92,67.51,15.41,77.12s-.33,19.52-5.92,23.59c-7.13,5.2-16.54,14-13.66,31.35,0,0,14-6.29,17.1,6.83,2.7,11.33-3.56,20.12-17.09,24.24,0,0,1,50.86,51.84,39.7S925.45,529.82,925.45,529.82Z" transform="translate(127 6)"/><path class="cls-6" d="M876.3,502.4l2.77-.6a2,2,0,0,0,1.47-2.33l-9.79-42.93h0c-3.87-14.21-14.32-59.34-17.35-73.14a3.84,3.84,0,0,0,3.51-1.58c1.39-1.91-1-1.86-1.54-3.43s.3-1,.28-3-3.21-1.13-3.24-2.91,1.57-2,1.28-4.19-3.27-2.64-6.9-1.78l-.28.06-.28.06c-3.66.74-6.18,2.4-5.52,4.51s2.2,1.63,2.91,3.26-2.56,2.14-1.72,4,1.33,1,1.52,2.62-2,2.61,0,3.76a3.83,3.83,0,0,0,3.85,0c2.9,13.22,12.42,59.16,14.85,73.69h0l9.44,43a1.94,1.94,0,0,0,2.31,1.48Z" transform="translate(127 6)"/><path class="cls-6" d="M871.47,525.22h0a1.4,1.4,0,0,0-.1-.16l-.11-.17a3.17,3.17,0,0,0-2.48-1.44,4,4,0,0,0-3.6,1.85c-.81,1.21-1.8,4,.65,8.94,3.13,6.35,5.37,12.7.6,16.07a6.25,6.25,0,0,1-5.06,1,3.13,3.13,0,0,1-.78-.38l.21,0a2.73,2.73,0,1,0-2.85-1.23,4.81,4.81,0,0,0,3,3,6.39,6.39,0,0,0,3.36.09,8.31,8.31,0,0,0,3-1.27c6.41-4.54,2-13.52-.15-17.84s-1.39-6.58-.75-7.54a2.77,2.77,0,0,1,1.87-1.2,2,2,0,0,0-.37,1.6,1.94,1.94,0,1,0,3.62-1.25Z" transform="translate(127 6)"/><path class="cls-6" d="M890.24,521.1h0c0-.06,0-.12,0-.18l0-.21a3.22,3.22,0,0,1,1.65-2.35,4.08,4.08,0,0,1,4.05.18c1.23.75,3.29,2.85,3.15,8.39-.19,7.08.43,13.78,6.18,14.85a6.23,6.23,0,0,0,5-1.22,3.11,3.11,0,0,0,.55-.66,1.52,1.52,0,0,1-.2.06,2.67,2.67,0,1,1,2-3.18,2.37,2.37,0,0,1,0,.88,4.78,4.78,0,0,1-1.47,3.93,6.34,6.34,0,0,1-3,1.49,8.34,8.34,0,0,1-3.21.08c-7.72-1.44-7.46-11.45-7.33-16.27s-1.5-6.55-2.48-7.15a2.71,2.71,0,0,0-2.2-.31,1.9,1.9,0,0,1,1,1.29,1.94,1.94,0,0,1-1.48,2.3,1.92,1.92,0,0,1-2.29-1.47A1.38,1.38,0,0,1,890.24,521.1Z" transform="translate(127 6)"/><path class="cls-6" d="M892.55,588.1c-.94-4.29-3.92-12.71-6.91-15s12.59-11.8,11.87-9.17a41.31,41.31,0,0,0-1,9.28c0,4.08,1.41,13.64,1.41,13.64Z" transform="translate(127 6)"/><path class="cls-6" d="M894,594.26l5.89-1.29s2.22,22.46,3.45,30.1C901.3,615.93,894,594.26,894,594.26Z" transform="translate(127 6)"/><line class="cls-11" x1="976.08" y1="384.29" x2="1009.94" y2="538.68"/><line class="cls-11" x1="977.3" y1="384.02" x2="1011.41" y2="538.35"/><line class="cls-11" x1="978.51" y1="383.75" x2="1012.87" y2="538.03"/><line class="cls-11" x1="974.84" y1="384.56" x2="1008.48" y2="539"/><line class="cls-11" x1="973.65" y1="384.82" x2="1007.01" y2="539.32"/><rect class="cls-6" x="873.4" y="531.79" width="19.09" height="1.78" rx="0.63" transform="translate(33.39 207.51) rotate(-12.37)"/><polygon class="cls-5" points="978.02 488.62 974.78 499 978.75 499.96 982.24 489.35 978.02 488.62"/><path class="cls-12" d="M855.24,483.35c3.69,0,6.45-1.8,11,.41s12.26,6.19,11.55,7.44-5.52-1.26-7.25-1.87,4.55,4.51,5.24,5.77-1.23,1.49-6-2a2.41,2.41,0,0,1-1.07,2.68c-1.58.9-1.57,2.31-2.68,2.21s-13.39-6.74-13.39-6.74Z" transform="translate(127 6)"/><polygon class="cls-8" points="949.1 436.25 950.83 454.82 957.91 457.17 949.1 456.5 949.1 436.25"/><polygon class="cls-8" points="957.91 462.07 956.46 468.81 959.95 472.72 954.01 469.59 957.91 462.07"/><path class="cls-8" d="M810.9,516.33h-3.46s6.7,70,6.91,75.36.22,7.71-1.9,11.18-1,6,.19,6.94c-1.12-2.06,1.37-6.13,3.63-9.23s.28-9.88,0-16.82S810.9,516.33,810.9,516.33Z" transform="translate(127 6)"/><path class="cls-12" d="M851.53,426.76c-4.25,6.25-6.87,6.95-10.58,6s-11.62-8.29-11.49-13.6Z" transform="translate(127 6)"/><path class="cls-6" d="M833.43,398.08c-6.38-1.35-10.81,5.35-9.31,11.85,1.39,6,6,11.25,14.1,15.34,7.48,3.78,17.81,3,20.77-1.76s.46-9.88-3.45-14.2S833.43,398.08,833.43,398.08Z" transform="translate(127 6)"/><path class="cls-4" d="M832.19,402.1s2.15-7.12,3-9.09c1.49-3.61,9.13-4.36,15.93.42s8.49,9.88,7.75,13.27a25.14,25.14,0,0,1-1.62,5.2s-4,9.88-15.37,5.11S832.19,402.1,832.19,402.1Z" transform="translate(127 6)"/><path class="cls-5" d="M832.19,402.1s2.19,11,11.61,13.41,12.76-2.18,12.76-2.18l-1.87,4.1s-2.42,4-10.8,2.66a16.14,16.14,0,0,1-12.46-10.17,6.8,6.8,0,0,1-.22-4.62Z" transform="translate(127 6)"/><path class="cls-6" d="M851.08,393.43c-6.8-4.78-14.44-4-15.93-.42-1,2.75.78,8.7,8.91,13.38,6.27,3.61,12.65,3,14.77.31C859.57,403.31,857.87,398.21,851.08,393.43Z" transform="translate(127 6)"/><path class="cls-12" d="M958.09,442.48c-3.63,1.32-5.67,1.6-8,9.75s-7.75,34.41-7.75,34.41,4.93,10.32,5.73,9.18,2.13-2.94,6.29-16.91,6.08-19.26,6.08-19.26Z" transform="translate(127 6)"/><path class="cls-4" d="M961,441.32l-2.87,1.16s-.94,3.38-1.83,8.14-3.13,8.91,0,13.47c2.28,3.33,7.1,2.85,7.1,2.85s3.41,8.45,3.27,10.68S965.1,480.79,960,484s-11.78,6.41-8.57,29.37S962.76,575,962.76,575l-13.08,35.91,8.48,11.4h45.18L996.53,608l9-11.63s-21.76-30.73-22.83-32.92,8.81-38.89,10.41-45.57-.4-16-4-23.94-5.61-8.63-4.14-15.44,3.87-9.88,8-19.62,4-16.29,4-16.29l-2.54-1.29Z" transform="translate(127 6)"/><path class="cls-8" d="M972.11,463.42s2.79,2.78,8.19,1.64a9.22,9.22,0,0,0,6.88-5.41s.46,5.77-6.09,7.4C973.69,468.88,972.11,463.42,972.11,463.42Z" transform="translate(127 6)"/><path class="cls-6" d="M979.79,427.5c-.08-3.16,3.94-3.78,7.42-7.14s6-10.4.78-16.17a15.63,15.63,0,0,0-1.16-14.12c-4.45-7.12-15.67-7.31-20.31-3.64s-5.42,6.77-5.42,6.77a8.75,8.75,0,0,1-7.37-3.13c-2.88-3.64-5.2,2.16-3.85,6.81s3.49,6.31,6,7.31Z" transform="translate(127 6)"/><path class="cls-12" d="M955.88,404.19a14.06,14.06,0,0,0,1,8.18c.84,1.7-1.4,5.73-1.86,8.46.06,1.05,3.52.68,3.52.68,1,.09,1.56,6.29,3.45,7.65,1.24.89,4.06.15,8.39-1.66,0,0,.81,6.49-.67,8.6s-8.77,5.22-8.77,5.22.64,11.56,8.26,12.73,25.18-12.73,25.18-12.73-11-5.49-13.12-6.79-1.48-15.35-1.48-15.35c1.26,1.14,5.17-5.56,3-7.95a3,3,0,0,0-5.29,1.55s0,2.18-1.27,2c-.76-.09-2.33-8.89-3-8.68s-3.39,2.26-5.51-1.94C967.73,404.19,961.17,406.91,955.88,404.19Z" transform="translate(127 6)"/><polygon class="cls-10" points="1065.01 446.27 1171.35 628.34 1174.57 628.34 1067.07 444.73 1065.01 446.27"/><path class="cls-12" d="M976.07,514.49a.4.4,0,0,1-.05-.3c.08-.23.35-.29.58-.35s.48-.27.39-.48a.72.72,0,0,0-.17-.22.58.58,0,0,1,.11-.73,8.88,8.88,0,0,1,2.72-1.3,7.79,7.79,0,0,1,3.47-.51c4.07.42,10,4.91,10.38,4.64s7.89-29.28,7.89-29.28l-8.78-26.31,4.33-17c3.22,1.87,3.89,3.79,6.58,13.46s7.4,28,7.63,29.89-11,25.92-13,30.37a33.94,33.94,0,0,0-1.44,4.19,5.29,5.29,0,0,1-1.51,2.85c-2.5,1.83-5.44-1.81-7.62-2.71a13.59,13.59,0,0,0-3.88-.78c-.57,0-3.24-.15-3.45-.86-.07-.26.16-.49.39-.63a4.87,4.87,0,0,1,2.56-.56,14.65,14.65,0,0,0,2.65-.08c.07,0,.15,0,.18-.1a.25.25,0,0,0-.07-.25,6.8,6.8,0,0,0-5.14-2.41c-1.36-.12-2.73-.08-4.08-.22a1.1,1.1,0,0,1-.51-.13A.57.57,0,0,1,976.07,514.49Z" transform="translate(127 6)"/><path class="cls-5" d="M1007.56,471.23a15.84,15.84,0,0,0-10.07,3h0l3.9,11.69s-7.37,28.93-7.89,29.28-6.31-4.22-10.38-4.64a7.79,7.79,0,0,0-3.47.51,8.88,8.88,0,0,0-2.72,1.3.58.58,0,0,0-.11.73.72.72,0,0,1,.17.22c.09.21-.16.41-.39.48s-.5.12-.58.35a.4.4,0,0,0,.05.3.57.57,0,0,0,.16.15,1.1,1.1,0,0,0,.51.13c1.35.14,2.72.1,4.08.22A6.8,6.8,0,0,1,986,517.4a.25.25,0,0,1,.07.25c0,.06-.11.08-.18.1a14.65,14.65,0,0,1-2.65.08,4.87,4.87,0,0,0-2.56.56c-.23.14-.46.37-.39.63.21.71,2.88.81,3.45.86a13.59,13.59,0,0,1,3.88.78c2.18.9,5.12,4.54,7.62,2.71a5.29,5.29,0,0,0,1.51-2.85,33.94,33.94,0,0,1,1.44-4.19c2-4.45,13.22-28.45,13-30.37C1011,484.86,1009.41,478.38,1007.56,471.23Z" transform="translate(127 6)"/><path class="cls-5" d="M946.86,495.82c4.28,2.21,3-17.6,2.82-25.34s1.6-10-1.44-12.86-1.38-6.49-1.38-9.67,1.66-6.63-1.52-4.7-5.25,8.48-5.81,10.8,5.32,5.07,5.24,6.55-2.33,15.78-3.44,22S944.47,494.58,946.86,495.82Z" transform="translate(127 6)"/><path class="cls-7" d="M938.37,441.9c4-3.76,6.85-5.74,5.23-10.23s-5-8.51-9.12-3.6c-4.65,5.51-7.3,9.62-5.93,12.64S933.67,446.32,938.37,441.9Z" transform="translate(127 6)"/><path class="cls-4" d="M933.64,435a.7.7,0,0,0,.52.25.72.72,0,0,0,.46-.16.7.7,0,0,0,.09-1L932.14,431c-.31.4-.59.78-.86,1.16Z" transform="translate(127 6)"/><path class="cls-4" d="M930.48,438.21a.72.72,0,0,0,.52.25.7.7,0,0,0,.47-.17.69.69,0,0,0,.09-1l-2-2.45a12.41,12.41,0,0,0-.67,1.38Z" transform="translate(127 6)"/><path class="cls-4" d="M936.88,431.93a.7.7,0,0,0,.52.25.72.72,0,0,0,.46-.16.7.7,0,0,0,.09-1L935,427.51c-.17.17-.35.35-.53.56l-.41.5Z" transform="translate(127 6)"/><path class="cls-4" d="M941.2,434.33a.71.71,0,0,0-1-.16.7.7,0,0,0-.16,1l2.18,3a10.25,10.25,0,0,0,.89-1.16Z" transform="translate(127 6)"/><path class="cls-4" d="M937.76,437.12a.7.7,0,0,0-1.14.82l2.42,3.34,1-1Z" transform="translate(127 6)"/><path class="cls-4" d="M936.63,443.26l-2.25-3.11a.7.7,0,0,0-1.14.82l2.11,2.91A7.11,7.11,0,0,0,936.63,443.26Z" transform="translate(127 6)"/><path class="cls-8" d="M957,486c-4.29,3.17-8.17,8.81-5.57,27.4,3.2,23,11.34,61.67,11.34,61.67s-2.54-18.9-7.08-47.67C951.07,498,952.13,492.36,957,486Z" transform="translate(127 6)"/><polygon class="cls-8" points="1091.41 511.92 1096.63 526.59 1101.72 619.91 1099.17 527.4 1091.41 511.92"/><rect class="cls-4" x="1036.85" y="402.09" width="45.61" height="2.73" transform="translate(234.35 -205.99) rotate(12.03)"/><path class="cls-4" d="M1075.4,405.4l-31.16-6.63,3.3-10.77a1.78,1.78,0,0,1,2.07-1.22l26,5.54a1.78,1.78,0,0,1,1.39,2Z" transform="translate(127 6)"/><polygon class="cls-5" points="1171.24 404.77 1202.4 411.4 1203.14 406.22 1172.78 399.75 1171.24 404.77"/><path class="cls-12" d="M1044.9,401.71a25.33,25.33,0,0,0,.07,12.94c1.27,5.31-1.91,11.79-1.91,11.79l12.09,7.6,2.22-6.74s7.89,2.7,9.57,2.34,2.85-.81,3.89-4,1.42-4.24,1.42-4.24a7.29,7.29,0,0,0,3.17.05c1.06-1.46-1.84-8.77-1.79-9.53a11.1,11.1,0,0,0,.59-3.95Z" transform="translate(127 6)"/><polygon class="cls-7" points="1169.07 431.82 1191.41 445.86 1164.07 440.04 1169.07 431.82"/><path class="cls-4" d="M1037.07,434c-4.12,6.88-6.1,11-1.32,18.59s17,19.64,22.27,25,4.94,4,3.46,11.62-2.8,23.25-2.8,23.25l16.16-5.11,32.42,40.68s-16.92,25.45-19.72,29.08-8.74,6.42-8.91,11,3.62,3.36-.49,8c-1.56,1.75-4,4.61-4,4.61l2,3.3,4.28-2.64a69,69,0,0,0-2.14,6.64c-.16,1.28,7.09,14,7.42,14.32h28.37s-13.69-5.12-16.49-9.58-5.28-14.67-3.3-13.85,5.27,2.47,6.76-.82,3.63-11.71,8.74-18.48,17-27.68,18.21-29.82-9.8-31.85-19.36-50.16-30.26-50.94-44.24-59.77Z" transform="translate(127 6)"/><path class="cls-8" d="M1074.84,507.38c14-3.53,16.28-7.62,13.45-17,0,0,1,4.71-2.72,10.48C1083.92,503.38,1079.1,504.94,1074.84,507.38Z" transform="translate(127 6)"/><path class="cls-6" d="M1052.65,419.18c-1.37,1.14-7.46-5.16-4-7.95s4.87,1,5.18,2.69.6,2.89,1.52,2.44.76-5.7,2.28-6.12,4.79-1.16,6.74-4.38c-.65-.47-20.17-4.29-20.17-4.29s-1.93,6.21-1.18,9.66,2.67,7.75,1.18,12.15C1044.24,423.38,1050.21,425.19,1052.65,419.18Z" transform="translate(127 6)"/><path class="cls-8" d="M1091.56,575c3.63-6.6,15.7-27,15.7-27s-16.92,25.45-19.72,29.08-8.74,6.42-8.91,11c-.1,2.88,1.37,3.46,1.42,4.68l.48.19a8,8,0,0,1,1.57-8.31C1084.36,582.5,1088.7,580.23,1091.56,575Z" transform="translate(127 6)"/><path class="cls-13" d="M1070.73,426.18l.22-1.06a6.48,6.48,0,0,0,5.83-1.24c4.16-3.11,3.49-8.23,8.12-11.24s9.16-1.71,15.07,6.13c5.69,7.54,25.81,32.76,31.68,40.66,1.55,2.1,2.37,2.45,2.82,2.1.62-.48-.13-1.53-1.26-3.26-3.32-5.06-8.61-12.82-9.1-20.24-.5-7.66,2.62-9.72-.44-12.89s6.79-.88,16.39,4c10.37,5.29,15.3,8.59,11.94,9s-5.71,3-4.77,6.89,8,16.66,6.4,25.82c-1.47,8.66-16.37,17.53-28,.78-11.87-17.09-27.91-40.53-31.08-45.16s-6.9-10.95-10.62-6.69c-3.46,3.94-6.82,8.56-11,7.28A12.23,12.23,0,0,1,1070.73,426.18Z" transform="translate(127 6)"/><path class="cls-14" d="M1128.52,426.32l20.11,9.51a.29.29,0,0,1-.12.56l-11.31.44a3.36,3.36,0,0,1-2.86-1.41l-6.19-8.66A.3.3,0,0,1,1128.52,426.32Z" transform="translate(127 6)"/><rect class="cls-10" x="1139.9" y="450.98" width="9.27" height="1.82" rx="0.61" transform="translate(264.01 -248.55) rotate(13.49)"/><path class="cls-15" d="M1146.9,452.91a2.79,2.79,0,1,1,2.68,2.9A2.79,2.79,0,0,1,1146.9,452.91Z" transform="translate(127 6)"/><rect class="cls-10" x="1143.04" y="460.57" width="9.27" height="1.82" rx="0.61" transform="translate(266.33 -249.02) rotate(13.49)"/><path class="cls-15" d="M1150.05,462.5a2.79,2.79,0,1,1,2.68,2.9A2.78,2.78,0,0,1,1150.05,462.5Z" transform="translate(127 6)"/><rect class="cls-10" x="1118.62" y="460.11" width="9.27" height="1.82" rx="0.61" transform="translate(265.55 -243.33) rotate(13.49)"/><path class="cls-15" d="M1125.62,462.05a2.79,2.79,0,1,1,2.69,2.89A2.79,2.79,0,0,1,1125.62,462.05Z" transform="translate(127 6)"/><rect class="cls-10" x="1113.27" y="452.58" width="9.27" height="1.82" rx="0.61" transform="translate(263.65 -242.29) rotate(13.49)"/><path class="cls-15" d="M1120.27,454.52a2.79,2.79,0,1,1,2.68,2.89A2.78,2.78,0,0,1,1120.27,454.52Z" transform="translate(127 6)"/><rect class="cls-10" x="1099.65" y="431.96" width="6.76" height="1.33" rx="0.44" transform="translate(258.37 -239.39) rotate(13.49)"/><path class="cls-15" d="M1104.75,433.38a2,2,0,1,1,2,2.11A2,2,0,0,1,1104.75,433.38Z" transform="translate(127 6)"/><rect class="cls-10" x="1095.43" y="425.98" width="6.76" height="1.33" rx="0.44" transform="translate(256.85 -238.56) rotate(13.49)"/><path class="cls-15" d="M1100.53,427.39a2,2,0,1,1,2,2.11A2,2,0,0,1,1100.53,427.39Z" transform="translate(127 6)"/><path class="cls-4" d="M1037.07,436.66l40.66,21.51,20.93-14.07,6.1,9.81s-15.16,12.35-25.29,18.74c-5.73,3.62-42.77-18.6-42.77-18.6Z" transform="translate(127 6)"/><path class="cls-8" d="M1103.77,452.31s-17.85,13.79-24.9,17.2c-4.56,2.21-14.32-1.14-22.83-4.74h0c10,5.08,20.58,9.69,23.43,7.88,10.13-6.39,25.29-18.74,25.29-18.74Z" transform="translate(127 6)"/><polygon class="cls-5" points="1225.66 450.1 1228.13 448.4 1233.26 456.53 1230.77 458.31 1225.66 450.1"/><path class="cls-12" d="M1101.13,442.4c3-2,5.35-6,8.55-6.52s8.39-1.21,10-1.84,2,.6,1.1,1.45-7.73,2.17-8.52,2.65,1,1.11,4.51,1.2,4.65,0,5.65,0,1.28,1.74,0,2.47-7.22.55-8.79,0,4.77,3.53,7.51,4,2.83,2.23.37,2.5-7.38-2.26-8.75-2.75-2,1.89-3.22,2.78-4.15.81-4.15.81Z" transform="translate(127 6)"/><rect class="cls-1" x="847" y="628.34" width="500" height="203.66"/><path class="cls-16" d="M998.39,460.81a2.46,2.46,0,0,0-.73.47,1.56,1.56,0,0,0-.48,1.12,1,1,0,0,1,0-.52,1.43,1.43,0,0,1,.57-.9,4.35,4.35,0,0,1,1.12-.56c.26-.11.52-.2.76-.33a1.32,1.32,0,0,0,.61-1.8,8.41,8.41,0,0,1-.37-.81,1.09,1.09,0,0,1-.08-.31.18.18,0,0,1,0-.16,3,3,0,0,0,.34.78,3.45,3.45,0,0,1,.35.87,1.27,1.27,0,0,1-.35,1.2,2.76,2.76,0,0,1-.75.51,2.7,2.7,0,0,0-1.1.91A1.88,1.88,0,0,0,998,463s0,.06.06.08a2.67,2.67,0,0,1,.09-1.19.45.45,0,0,1,.11-.23,3.88,3.88,0,0,0,.16,2.16,2,2,0,0,1-.67-1.76c-.12.1-.14.17-.2.79a.5.5,0,0,1-.1-.31,1,1,0,0,1,.36-.79.18.18,0,0,0,.07-.1,2.09,2.09,0,0,1,.55-.82l0,0S998.41,460.79,998.39,460.81Z" transform="translate(127 6)"/><path class="cls-16" d="M998.83,458.65a.16.16,0,0,1-.13-.14c0-.08,0-.13-.14-.1a.32.32,0,0,1-.27-.1c0,.12,0,.22,0,.31a2.58,2.58,0,0,1-.31,1.44.61.61,0,0,1-.47.35.4.4,0,0,1-.47-.43.28.28,0,0,1,.21-.24.24.24,0,0,1,.28.07.21.21,0,0,1,0,.31l0,0a.14.14,0,0,0,0-.19.15.15,0,0,0-.17-.05.2.2,0,0,0-.13.16.26.26,0,0,0,.25.3.49.49,0,0,0,.48-.29,2.13,2.13,0,0,0,.24-.85,2.38,2.38,0,0,0-.88-2.17l-.77-.68a2.37,2.37,0,0,1-.56-.7.91.91,0,0,1,.16-1.12,1.39,1.39,0,0,0,.39,1.53,8.67,8.67,0,0,0,.71.65,3.2,3.2,0,0,1,.93,1.17,2.85,2.85,0,0,1,.12.31.27.27,0,0,0,.37.17.68.68,0,0,0,.41-.52.39.39,0,0,0-.28-.45.4.4,0,0,1,.37.18.43.43,0,0,1,0,.44.79.79,0,0,1-.39.35s-.08,0-.1.06c.18.06.2.09.19.25Z" transform="translate(127 6)"/><path class="cls-16" d="M998.69,463.14a2.26,2.26,0,0,0,1,1.11l.1.07h0a1.76,1.76,0,0,1-1.14-.79,2.29,2.29,0,0,1-.07-2.28,1.48,1.48,0,0,1,.13-.21h0a2.63,2.63,0,0,0-.23,1.11,1.15,1.15,0,0,0,.87,1.14.77.77,0,0,1-.64-.18h0Z" transform="translate(127 6)"/><path class="cls-16" d="M1000.32,457.88a1.12,1.12,0,0,1,.15-.8,4.13,4.13,0,0,1,.47-.63l.36-.42a1.41,1.41,0,0,0,.27-1.55.86.86,0,0,1,.29.85,1.68,1.68,0,0,1-.41.82c-.13.16-.27.3-.41.45A2.35,2.35,0,0,0,1000.32,457.88Z" transform="translate(127 6)"/><path class="cls-16" d="M998.07,458.66a4.52,4.52,0,0,0-1.26-1.28c-.3-.21-.59-.41-.87-.64a1.65,1.65,0,0,1-.48-.57.93.93,0,0,1,.07-1s0-.1.11-.12a1.5,1.5,0,0,0-.12.45,1.21,1.21,0,0,0,.29.85,4.07,4.07,0,0,0,.68.63,6.94,6.94,0,0,1,1.21,1.09,3.72,3.72,0,0,1,.33.45S998.09,458.6,998.07,458.66Z" transform="translate(127 6)"/><path class="cls-16" d="M998,459.06a4.48,4.48,0,0,0-1.66-1.2,4.11,4.11,0,0,1-.76-.45,1.65,1.65,0,0,1-.45-.5.9.9,0,0,1,.06-.88c0,.07,0,.13,0,.19a1.15,1.15,0,0,0,.36.91,2.82,2.82,0,0,0,.77.56,7.65,7.65,0,0,1,1.09.68s0,0,0,0h0c0,.09.05.1.09.13a1.89,1.89,0,0,1,.49.56Z" transform="translate(127 6)"/><path class="cls-16" d="M999.5,456.6a.75.75,0,0,0,.47,0s.15,0,.07-.14,0-.07.05-.08a.07.07,0,0,1,.09.06.29.29,0,0,1,0,.13.61.61,0,0,1-.63.23l-.25,0a1,1,0,0,0-.25,0,2,2,0,0,0-.63.52,1.08,1.08,0,0,1,.36,0,.52.52,0,0,1-.26.12.49.49,0,0,0-.24.14.44.44,0,0,1,.26-.48.29.29,0,0,0,.14-.13.61.61,0,0,1,.33-.28,1.53,1.53,0,0,0,.4-.21c0-.05.12-.09,0-.17s0-.05,0-.08a.06.06,0,0,1,.07,0,.11.11,0,0,1,.08.08.25.25,0,0,1-.14.25.38.38,0,0,0-.12.09.63.63,0,0,0,.48-.21s0-.06,0-.09,0,0,0-.08a.06.06,0,0,1,.08,0,.08.08,0,0,1,.08.07.27.27,0,0,1-.08.24A1.78,1.78,0,0,1,999.5,456.6Z" transform="translate(127 6)"/><path class="cls-16" d="M1000.43,458.13a1.49,1.49,0,0,1,.28-.46,8.43,8.43,0,0,1,.94-.95,2.24,2.24,0,0,0,.52-.67,1,1,0,0,0,0-.95l-.06-.1a.78.78,0,0,1,.37.63,1.31,1.31,0,0,1-.32.82,4.34,4.34,0,0,1-.63.58,8.2,8.2,0,0,0-.9.87C1000.55,458,1000.54,458.07,1000.43,458.13Z" transform="translate(127 6)"/><path class="cls-16" d="M999.63,463a.6.6,0,0,1-.52-.15,1.3,1.3,0,0,1-.37-1.28,1.63,1.63,0,0,1,.72-1.1s0,0,.06,0-.15.17-.21.26a1.71,1.71,0,0,0-.31,1.6A1,1,0,0,0,999.63,463Z" transform="translate(127 6)"/><path class="cls-16" d="M997.75,460.1c0-.12,0-.24-.07-.35a.63.63,0,0,0-.29-.22,5.18,5.18,0,0,0-1-.26,2.43,2.43,0,0,1-.86-.29.94.94,0,0,1-.47-.9c.05.12.08.21.12.29a1.12,1.12,0,0,0,.62.55,6.89,6.89,0,0,0,1.18.33,2.26,2.26,0,0,1,.48.16,1.15,1.15,0,0,1,.26.19.37.37,0,0,1,.06.5Z" transform="translate(127 6)"/><path class="cls-16" d="M1002.64,456c.07,0,.09.06.11.1a.93.93,0,0,1-.16,1.07,3.33,3.33,0,0,1-.81.63,5.25,5.25,0,0,0-1.17.82h0c0-.06,0-.09.07-.13a2.91,2.91,0,0,1,.49-.44l.84-.57a1.73,1.73,0,0,0,.58-.62A1,1,0,0,0,1002.64,456Z" transform="translate(127 6)"/><path class="cls-16" d="M997.81,459.36a3.59,3.59,0,0,0-1.33-.72,4.28,4.28,0,0,1-1.09-.49.93.93,0,0,1-.46-1s0-.05,0-.07l0-.05a1.28,1.28,0,0,1,0,.17,1.11,1.11,0,0,0,.52.79,6.36,6.36,0,0,0,1.23.6,2.7,2.7,0,0,1,1.1.72Z" transform="translate(127 6)"/><path class="cls-16" d="M1002.89,458a.84.84,0,0,1-.37.83,2.47,2.47,0,0,1-.74.33c-.25.08-.5.15-.75.25a2.16,2.16,0,0,0-.5.26s-.06.07-.12,0a1.19,1.19,0,0,1,.35-.32,5,5,0,0,1,.9-.36,3.66,3.66,0,0,0,.68-.29,1,1,0,0,0,.51-.66A.12.12,0,0,1,1002.89,458Z" transform="translate(127 6)"/><path class="cls-16" d="M1000.64,459.09a.57.57,0,0,1,.23-.23,4.51,4.51,0,0,1,.77-.44,5.35,5.35,0,0,0,.74-.41,1.15,1.15,0,0,0,.55-1,.75.75,0,0,1,.07.36,1,1,0,0,1-.46.75,3.08,3.08,0,0,1-.62.33l-.71.31a2.85,2.85,0,0,0-.55.35Z" transform="translate(127 6)"/><path class="cls-16" d="M999.91,460.22a2.22,2.22,0,0,0-.2.41c0,.08,0,.1.07.08a1.06,1.06,0,0,1,.53.05.3.3,0,0,1,.11.54c0-.16.05-.29-.1-.39,0,.28-.13.36-.3.26.1,0,.17-.06.16-.17a.18.18,0,0,0-.19-.15.73.73,0,0,0-.53.18,1.1,1.1,0,0,1,.43-.82Z" transform="translate(127 6)"/><path class="cls-16" d="M998.48,459.24a1.24,1.24,0,0,1-.5,1.42,2.16,2.16,0,0,0-.35.24,3.4,3.4,0,0,0-.32.33,1,1,0,0,1,.37-.5,1.65,1.65,0,0,0,.79-1.45S998.48,459.26,998.48,459.24Z" transform="translate(127 6)"/><path class="cls-16" d="M999.65,459.18s-.06.06-.1,0a.06.06,0,0,1,0-.08c0-.06.06-.14.14-.12s0,0,.07,0,.11-.16.17-.24,0,0,0-.05-.08-.11,0-.16,0,0,0-.06-.07-.1,0-.13.09,0,.12.07,0,0,0,.08h0s.07-.07.12-.05,0,.05,0,.08a.18.18,0,0,1-.12.12s0,0,0,0,0-.08,0-.06,0,0,0,.06.05.12.14.07.05,0,.06,0a.06.06,0,0,1,0,.08.28.28,0,0,1-.22.09c0,.07.08,0,.12,0s0,0,.06,0,0,.05,0,.06a.19.19,0,0,1-.2.05s-.07,0-.07,0,0,0,.07,0h.07s.05,0,.05,0,0,0,0,.06a.37.37,0,0,1-.18,0v0c0,.05.09.05.07.11s0,0-.08,0-.14,0-.15-.11.1-.08.05-.15Z" transform="translate(127 6)"/><path class="cls-16" d="M998.83,458.65l0,0s.06-.05.09,0,0,.06,0,.09,0,.19.12.25a.18.18,0,0,1,.06.21c0,.06-.06,0-.08,0a.28.28,0,0,1,0-.18.24.24,0,0,1-.29,0s-.06,0,0-.08.06,0,.08,0l.14.05c0-.06,0-.16-.11-.1a.11.11,0,0,1-.1,0s-.08-.08-.05-.12.07,0,.11,0,.07,0,.05,0Z" transform="translate(127 6)"/><path class="cls-16" d="M1000.77,458a.45.45,0,0,0,0,.08s.05.05,0,.07a.06.06,0,0,1-.08,0,.32.32,0,0,1,.12-.26.09.09,0,0,1,.14,0c0,.06,0,.11,0,.15s-.06,0-.08,0,0,0,0,0,.07,0,.06-.09,0,0,0,0a.11.11,0,0,0-.1.07A.43.43,0,0,1,1000.77,458Z" transform="translate(127 6)"/><path class="cls-16" d="M1001.12,459l.39-.24c.07-.05.17,0,.22-.07h0a.06.06,0,0,1,0,.06.09.09,0,0,1-.09,0,.2.2,0,0,0-.26.05C1001.34,459,1001.22,459,1001.12,459Z" transform="translate(127 6)"/><path class="cls-16" d="M996.94,458.56c-.12,0-.25-.13-.23-.23s0,0,0,0,0,0,0,0a.11.11,0,0,0,0,.05c0,.17.13.2.29.11s0-.05.09,0,0,0,0,0l-.08,0Z" transform="translate(127 6)"/><path class="cls-16" d="M997.42,458.78s0-.09,0-.09.12.07.12.14,0,.1-.07.09S997.4,458.85,997.42,458.78Z" transform="translate(127 6)"/><path class="cls-16" d="M997,459.07a2.94,2.94,0,0,0-.78-.11,1.47,1.47,0,0,1,.78.1Z" transform="translate(127 6)"/><path class="cls-16" d="M997,459.06c.06,0,.1.06.17,0s.08,0,.11,0l.12.11a.16.16,0,0,1,.07.07c-.09,0-.12-.08-.17-.12s-.06,0-.13,0h0l-.13-.1Z" transform="translate(127 6)"/><path class="cls-16" d="M999.14,456.89l-.1.12a.11.11,0,0,1-.13,0,.05.05,0,0,1,0-.07c0-.05.06-.06.11-.06h.16Z" transform="translate(127 6)"/><path class="cls-16" d="M1002.21,458.46a.34.34,0,0,0-.16.1c-.06.06,0,.11,0,.17s0,.09-.08.09,0,0,0,0,0,0,0,0,.07,0,0-.08-.06-.09,0-.12a.76.76,0,0,1,.17-.13s0,0,.06,0Z" transform="translate(127 6)"/><path class="cls-16" d="M1002.3,456.52a.19.19,0,0,1,.13.06c-.09,0-.1,0-.08.09l0,.16a.05.05,0,0,1,0,.07s-.06,0-.07,0,0-.05,0-.06,0-.05,0-.08A.71.71,0,0,1,1002.3,456.52Z" transform="translate(127 6)"/><path class="cls-16" d="M995.5,456.76s-.06-.09,0-.13.1,0,.15,0,0,.07,0,.11,0,.14,0,.19a0,0,0,0,1,0,0,.08.08,0,0,1-.08,0s0,0,0-.06a.13.13,0,0,0,0-.11c0-.05,0-.11,0-.13S995.54,456.74,995.5,456.76Z" transform="translate(127 6)"/><path class="cls-16" d="M1001.92,455.88l.11,0c.05,0,.06,0,0,.09a.08.08,0,0,1-.09.07l-.13,0c-.12,0-.13-.07-.05-.17v0s0,.08,0,.1.12.07.18,0,.07-.05,0-.07a.12.12,0,0,1-.08-.06Z" transform="translate(127 6)"/><path class="cls-16" d="M995.94,456c0-.06,0-.06-.07,0a.36.36,0,0,1,0,.09c0-.05,0-.12,0-.15a.12.12,0,0,1,.16.06.14.14,0,0,1,0,.22c0-.07.13-.19,0-.21Z" transform="translate(127 6)"/><path class="cls-16" d="M999.07,459.32s-.11,0-.11-.06.09-.07.15-.09a.08.08,0,0,1,.1.07C999.19,459.3,999.13,459.31,999.07,459.32Z" transform="translate(127 6)"/><path class="cls-16" d="M997.46,457.49a.3.3,0,0,1,.16.22C997.48,457.71,997.47,457.7,997.46,457.49Zm.06.09v0l0,0v0Z" transform="translate(127 6)"/><path class="cls-16" d="M996.3,457.38s.07,0,.1,0,0,0,.06,0,0,.06,0,.06-.1.06-.14.11,0,0-.07,0,0,0,0-.06,0-.05,0,0,0,.06.07,0,0-.07,0-.1Z" transform="translate(127 6)"/><path class="cls-16" d="M1001.2,457.79a.06.06,0,0,1,0,0,.34.34,0,0,0,0-.31s0,0,.06.09,0,.18-.08.26Z" transform="translate(127 6)"/><path class="cls-16" d="M998.93,459.18s-.12,0-.12-.07.07-.05.12-.05a.08.08,0,0,1,.1.07S999,459.17,998.93,459.18Z" transform="translate(127 6)"/><path class="cls-16" d="M1001.8,457.35c-.12.19-.12.19-.28,0a.59.59,0,0,1-.08-.08c.07,0,.1.08.15,0h0s0,.07.06.09a.08.08,0,0,0,.08,0s0-.07.07-.05Z" transform="translate(127 6)"/><path class="cls-16" d="M999.24,459s.07,0,.09.07a.19.19,0,0,1,0,.13s0,0-.06,0-.09-.1-.1-.17A0,0,0,0,1,999.24,459Z" transform="translate(127 6)"/><path class="cls-16" d="M999,458.32a.16.16,0,0,1,0,.12.18.18,0,0,1-.1.09s0,0,0,0a.11.11,0,0,1,0-.12Z" transform="translate(127 6)"/><path class="cls-16" d="M995.46,458.38a1.79,1.79,0,0,1,.42.2A2,2,0,0,1,995.46,458.38Z" transform="translate(127 6)"/><path class="cls-16" d="M996.31,458.75a.08.08,0,0,1-.07.07s-.09,0-.09-.09,0-.06.08-.06S996.31,458.7,996.31,458.75Z" transform="translate(127 6)"/><path class="cls-16" d="M999.24,459.4s-.06,0,0,0,.1-.09.16-.11,0,0,0,0A.17.17,0,0,1,999.24,459.4Z" transform="translate(127 6)"/><path class="cls-16" d="M999.47,459.29c.12-.05.17,0,.22.08s0,0,0,0S999.53,459.35,999.47,459.29Z" transform="translate(127 6)"/><path class="cls-16" d="M1001.81,458a.44.44,0,0,1-.26.22,1.84,1.84,0,0,0,.25-.23Z" transform="translate(127 6)"/><path class="cls-16" d="M1001.35,458.21c-.05.07-.14,0-.18.12v0h0a0,0,0,0,0,0,0c-.08,0,0-.05,0-.07Z" transform="translate(127 6)"/><path class="cls-16" d="M1001.06,456.8a0,0,0,0,0,0,0s.06-.1.13-.07,0,0,0,.07-.09.05-.14,0h0Z" transform="translate(127 6)"/><path class="cls-16" d="M1000.76,457.33a.66.66,0,0,1,.15-.41l0,0c-.1.11-.09.27-.17.39Z" transform="translate(127 6)"/><path class="cls-16" d="M996.16,458.23c.11,0,.21.11.32.15a.61.61,0,0,1-.33-.14Z" transform="translate(127 6)"/><path class="cls-16" d="M1002.38,457.71a1,1,0,0,1-.26.2l0,0,.27-.19Z" transform="translate(127 6)"/><path class="cls-16" d="M996.25,458.16c.11,0,.2.1.31.08-.07.06-.2,0-.31-.08Z" transform="translate(127 6)"/><path class="cls-16" d="M996.52,456.63l-.06.14s0,.06-.07,0a.05.05,0,0,1,0-.09A.49.49,0,0,1,996.52,456.63Z" transform="translate(127 6)"/><path class="cls-16" d="M1001.14,458.52c.1,0,.16-.1.25-.12-.07.07-.12.16-.25.11Z" transform="translate(127 6)"/><path class="cls-16" d="M995.69,458.64a.57.57,0,0,1-.28-.14.74.74,0,0,1,.28.14Z" transform="translate(127 6)"/><path class="cls-16" d="M997.39,457.43c-.11.09-.11.09-.17,0l.17,0Z" transform="translate(127 6)"/><path class="cls-16" d="M1000.76,457.33a.35.35,0,0,1-.12.22.43.43,0,0,1,.12-.22Z" transform="translate(127 6)"/><path class="cls-16" d="M995.69,458.64a.35.35,0,0,1,.2.16l-.2-.16Z" transform="translate(127 6)"/><path class="cls-16" d="M1001,457.09s-.06,0-.09.05,0,0,0,0a.13.13,0,0,1,.08-.08S1001,457.07,1001,457.09Z" transform="translate(127 6)"/><path class="cls-16" d="M997.19,458c.06.06,0,.15.09.22a.31.31,0,0,1-.09-.22Z" transform="translate(127 6)"/><path class="cls-16" d="M1002.14,457.71l.2-.15,0,0a.74.74,0,0,1-.2.16Z" transform="translate(127 6)"/><path class="cls-16" d="M996.68,457.68a.08.08,0,0,1-.12,0s0,0,0-.07l0,0s0,0,0,0,.06,0,.08,0Z" transform="translate(127 6)"/><path class="cls-16" d="M996.25,456.39a.26.26,0,0,0,.19.13c-.09,0-.2,0-.19-.13Z" transform="translate(127 6)"/><path class="cls-16" d="M1000.88,459.16a.4.4,0,0,1,.2-.09l-.18.12Z" transform="translate(127 6)"/><path class="cls-16" d="M1002.23,458.52c0,.08,0,.1-.1.12,0-.05.11-.05.1-.12Z" transform="translate(127 6)"/><path class="cls-16" d="M996.7,457.65a.29.29,0,0,1,.13-.08s0,0,0,0,0,.05,0,.05-.08,0-.13,0Z" transform="translate(127 6)"/><path class="cls-16" d="M996.43,458.11c.06,0,.12.06.19,0s-.13.06-.19,0Z" transform="translate(127 6)"/><path class="cls-16" d="M995.91,457.92a.51.51,0,0,1,.16.13.54.54,0,0,1-.18-.11Z" transform="translate(127 6)"/><path class="cls-16" d="M1001.67,456.42c0-.08.06-.13.09-.19a.26.26,0,0,1-.09.18Z" transform="translate(127 6)"/><path class="cls-16" d="M995.89,456.11a.24.24,0,0,1,0,.08s0,0-.08,0,0,0,0,0,0,0,.06,0,0,0,.07,0Z" transform="translate(127 6)"/><path class="cls-16" d="M996.18,457.25a.22.22,0,0,1,.12.13h0a.76.76,0,0,1-.14-.11Z" transform="translate(127 6)"/><path class="cls-16" d="M995.94,457.05a.34.34,0,0,1-.12-.12s.12,0,.12.12Z" transform="translate(127 6)"/><path class="cls-16" d="M1001.82,457c0,.07-.05.11-.09.16h0a.4.4,0,0,1,.1-.15Z" transform="translate(127 6)"/><path class="cls-16" d="M996.23,456.36c-.08,0-.12,0-.18-.07h0a.16.16,0,0,1,.17.07Z" transform="translate(127 6)"/><path class="cls-16" d="M996,457.79a.81.81,0,0,1,.14.12h0l-.14-.11Z" transform="translate(127 6)"/><path class="cls-16" d="M997.19,457.8a.24.24,0,0,1,.1.1l0,0-.1-.1Z" transform="translate(127 6)"/><path class="cls-16" d="M997.46,458.24a.19.19,0,0,1-.1-.1l0,0,.09.11Z" transform="translate(127 6)"/><path class="cls-16" d="M997,457.18l-.11-.09,0,0,.11.09Z" transform="translate(127 6)"/><path class="cls-16" d="M1001.55,456.37c0-.07,0-.11.06-.15a.28.28,0,0,1-.06.15Z" transform="translate(127 6)"/><path class="cls-16" d="M1001.8,455.86c.06-.08.09,0,.12,0h0s-.07,0-.11,0Z" transform="translate(127 6)"/><path class="cls-16" d="M1001.65,457.3c0-.06,0-.09.07-.13h0a.15.15,0,0,1-.08.12Z" transform="translate(127 6)"/><path class="cls-16" d="M1002.34,457.56a.3.3,0,0,1,.11-.07.13.13,0,0,1-.09.09Z" transform="translate(127 6)"/><path class="cls-16" d="M997.53,458.19c.07,0,.08.06.12.07s-.08,0-.11-.07Z" transform="translate(127 6)"/><path class="cls-16" d="M997.42,458.37c0-.05-.06-.05-.07-.1a.14.14,0,0,1,.12.09h-.05Z" transform="translate(127 6)"/><path class="cls-16" d="M996.43,458.11c-.06,0-.09,0-.12-.06a.2.2,0,0,1,.12.06Z" transform="translate(127 6)"/><path class="cls-16" d="M1001.6,456.54a.12.12,0,0,1,.07-.12h0a.17.17,0,0,1-.08.13Z" transform="translate(127 6)"/><path class="cls-16" d="M1001.14,458.51s-.09,0-.16,0,.1-.07.16,0Z" transform="translate(127 6)"/><path class="cls-16" d="M1001.8,458s0-.08.08-.09l-.07.1Z" transform="translate(127 6)"/><path class="cls-16" d="M995.94,457.81a.17.17,0,0,1-.1-.07c.06,0,.08,0,.12.05Z" transform="translate(127 6)"/><path class="cls-16" d="M1002.47,457.8s-.05.06-.09.05a.1.1,0,0,1,.07-.07Z" transform="translate(127 6)"/><path class="cls-16" d="M996.81,457s-.06,0-.06,0,0,0,.07,0Z" transform="translate(127 6)"/><path class="cls-16" d="M997.47,458.36s.07,0,.1.07a.13.13,0,0,1-.1-.07Z" transform="translate(127 6)"/><path class="cls-16" d="M996.12,457.23a.27.27,0,0,1-.08-.07h0s.06,0,.09.06Z" transform="translate(127 6)"/><path class="cls-16" d="M1001.34,456.65a.13.13,0,0,1,.07-.1C1001.42,456.6,1001.39,456.62,1001.34,456.65Z" transform="translate(127 6)"/><path class="cls-16" d="M997.11,457.91s-.07,0-.07-.09.09,0,.07.09Z" transform="translate(127 6)"/><path class="cls-16" d="M997.29,457.9s.06.05,0,.11l-.06-.09Z" transform="translate(127 6)"/><path class="cls-16" d="M1001.85,457s0-.06,0-.1,0,.07,0,.1Z" transform="translate(127 6)"/><path class="cls-16" d="M997.17,457.82l-.08-.05a.08.08,0,0,1,.1,0Z" transform="translate(127 6)"/><path class="cls-16" d="M995.94,457.05s0,0,0,.05h0s0,0,0-.06Z" transform="translate(127 6)"/><path class="cls-16" d="M995.89,457.94s0,0-.06-.05.06,0,.08,0Z" transform="translate(127 6)"/><path class="cls-16" d="M1001.46,456.46s0,.06,0,.1a.1.1,0,0,1,0-.1Z" transform="translate(127 6)"/><path class="cls-16" d="M1001.55,456.62c0-.05,0-.07.05-.08h0a.09.09,0,0,1-.05.08Z" transform="translate(127 6)"/><path class="cls-16" d="M1002.11,457.77l-.05.05s0-.05,0-.07Z" transform="translate(127 6)"/><path class="cls-16" d="M1002.27,458s0,.05-.09,0,0-.05.07-.06Z" transform="translate(127 6)"/><path class="cls-16" d="M1002.29,457.89s0-.05.07,0,0,0-.05,0Z" transform="translate(127 6)"/><path class="cls-16" d="M997.48,458.22s.06,0,0,.08h0a.08.08,0,0,1,0-.05Z" transform="translate(127 6)"/><path class="cls-16" d="M1000.93,456.89s0,0,.06-.05h0l0,.06Z" transform="translate(127 6)"/><path class="cls-16" d="M996.15,458.24s0,0,0,0,0,0,0,0Z" transform="translate(127 6)"/><path class="cls-16" d="M1001.49,456.67s0-.06.06-.05h0s0,.05,0,.05Z" transform="translate(127 6)"/><path class="cls-16" d="M997.08,457.05s-.05,0,0,0,0,0,0,0Z" transform="translate(127 6)"/><path class="cls-16" d="M1002.45,457.78s0,0,0,0,0,0,0,.05Z" transform="translate(127 6)"/><path class="cls-16" d="M1002.37,457.69s0,0,0,0,0,0,0,0Z" transform="translate(127 6)"/><path class="cls-16" d="M997.24,457.2s0,0,0-.05h0s0,0,0,.06Z" transform="translate(127 6)"/><path class="cls-16" d="M996.28,458h0v0Z" transform="translate(127 6)"/><path class="cls-16" d="M1001.82,457.3s0,0,0,0h0s0,0,0,0Z" transform="translate(127 6)"/><path class="cls-16" d="M997.52,458.16s0,0,0-.05h0s0,0,0,.05Z" transform="translate(127 6)"/><path class="cls-16" d="M1001.19,457.79l0,0h0s0,0,0,0Z" transform="translate(127 6)"/><path class="cls-16" d="M997.44,458.09s0,0,0,0h0s0,0,0,0Z" transform="translate(127 6)"/><path class="cls-16" d="M997.44,457.37h0s0,0,0,0h0Z" transform="translate(127 6)"/><path class="cls-16" d="M1002.23,458.52s0,0,0-.06h0s0,0,0,.06Z" transform="translate(127 6)"/><path class="cls-16" d="M997.5,460.12s0,0,0,0,0,0,0,0Z" transform="translate(127 6)"/><path class="cls-16" d="M998.69,461l0,0s0,0,0,0Z" transform="translate(127 6)"/><path class="cls-16" d="M995.9,456.11s0,0,0-.05h0s0,0,0,.05Z" transform="translate(127 6)"/><path class="cls-16" d="M996.2,458.14a0,0,0,0,1,0,0h0a0,0,0,0,1,0,0Z" transform="translate(127 6)"/><path class="cls-16" d="M1001.52,456.39s0,0,0,.05h0s0,0,0-.05Z" transform="translate(127 6)"/><path class="cls-16" d="M1002.16,457.74l0,0v0l0,0Z" transform="translate(127 6)"/><path class="cls-16" d="M995.94,456s0,.05,0,.06h0l0-.06Z" transform="translate(127 6)"/><path class="cls-16" d="M995.69,457.66s0,0,0,0h0s0,0-.06,0Z" transform="translate(127 6)"/><path class="cls-16" d="M995.69,457.65s0,0,0,0h0s0,0,0,0Z" transform="translate(127 6)"/><path class="cls-16" d="M1002.25,457.93l0,0,0,0,0,0Z" transform="translate(127 6)"/><path class="cls-16" d="M998,459.05l0,0h0l0,0Z" transform="translate(127 6)"/><path class="cls-16" d="M997.57,458.31s0,0,0,0h0s0,0,0,0Z" transform="translate(127 6)"/><path class="cls-16" d="M997.34,458.08s0,0,0,0h0l0,0Z" transform="translate(127 6)"/><path class="cls-16" d="M998.05,459.13l0,0h0v0Z" transform="translate(127 6)"/><path class="cls-16" d="M997.57,458.31s0,0-.06,0h0s0,0,.06,0Z" transform="translate(127 6)"/><path class="cls-16" d="M997.89,459.39s0,0,0,.05,0,0,0,0Z" transform="translate(127 6)"/><path class="cls-16" d="M997.16,457.93s0,0,0,0h0s0,0,0,0Z" transform="translate(127 6)"/><path class="cls-16" d="M1000.94,458.57l0,0,0,0,0,0Z" transform="translate(127 6)"/><path class="cls-16" d="M1000.82,458.66l0,0h0l0,0Z" transform="translate(127 6)"/><path class="cls-16" d="M996.14,457.21l0,0,0,0,0,0Z" transform="translate(127 6)"/><path class="cls-16" d="M997.24,457.2a0,0,0,0,1,0,.05h0s0,0,0-.05Z" transform="translate(127 6)"/><path class="cls-16" d="M1001.89,457.2h0Z" transform="translate(127 6)"/><path class="cls-16" d="M996.82,457l0,0h0l0,0Z" transform="translate(127 6)"/><path class="cls-16" d="M1001.8,457.36a0,0,0,0,1,0-.06h0a0,0,0,0,1,0,.05Z" transform="translate(127 6)"/><path class="cls-16" d="M996.22,456.36a0,0,0,0,1,0,0h0s0,0,0,0Z" transform="translate(127 6)"/><path class="cls-16" d="M1001.52,456.39s0,0,0,0h0l0,0Z" transform="translate(127 6)"/><path class="cls-16" d="M1001.49,456.44s0,0,0,0h0l0,0Z" transform="translate(127 6)"/><polygon class="cls-16" points="1126.77 470.32 1126.78 470.32 1126.77 470.32 1126.77 470.32"/><polygon class="cls-16" points="1123.5 462.55 1123.49 462.56 1123.48 462.55 1123.49 462.55 1123.5 462.55"/><path class="cls-16" d="M1001.47,456.69l0,0h0s0,0,0,0Z" transform="translate(127 6)"/><path class="cls-16" d="M997.44,458.09s0,0,0,0h0l0,0Z" transform="translate(127 6)"/><path class="cls-16" d="M997.34,458.09h0v0Z" transform="translate(127 6)"/><path class="cls-16" d="M995.8,457.71h0Z" transform="translate(127 6)"/><path class="cls-16" d="M995.74,457.68l0,0h0s0,0,0,0Z" transform="translate(127 6)"/><path class="cls-16" d="M1001.06,456.79v0h0Z" transform="translate(127 6)"/><path class="cls-16" d="M996.71,457.66l0,0h0s0,0,0,0Z" transform="translate(127 6)"/><path class="cls-16" d="M1001,456.84h0s0,0,0,0Z" transform="translate(127 6)"/><polygon class="cls-16" points="1126.14 462.9 1126.14 462.89 1126.14 462.89 1126.14 462.9"/><path class="cls-16" d="M1000.91,456.92l0,0,0,0,0,0Z" transform="translate(127 6)"/><path class="cls-16" d="M1001.85,457s0,0,0,0h0s0,0,0,0Z" transform="translate(127 6)"/><path class="cls-16" d="M996.1,457.91s0,0,0,0h0Z" transform="translate(127 6)"/><path class="cls-16" d="M1000.84,458.67l0,0s0,0,0,0Z" transform="translate(127 6)"/><path class="cls-16" d="M1000.92,458.55s0,0,0,0l0,0Z" transform="translate(127 6)"/><path class="cls-16" d="M997.19,458s0,0,0,0h0s0,0,0,0Z" transform="translate(127 6)"/><path class="cls-16" d="M998.05,459.12s0,0,0,0h0l0,0Z" transform="translate(127 6)"/><path class="cls-16" d="M1000.66,459.1l0,0v0Z" transform="translate(127 6)"/><path class="cls-16" d="M997.39,457.43v0h0l0,0Z" transform="translate(127 6)"/><path class="cls-16" d="M997.16,457.13l0,0h0l0,0Z" transform="translate(127 6)"/><path class="cls-16" d="M997.14,457.1l0,0h0l0,0Z" transform="translate(127 6)"/><path class="cls-16" d="M1001.62,457.32l0,0h0l0,0Z" transform="translate(127 6)"/><path class="cls-16" d="M997.11,457.07s0,0,0,0h0l0,0Z" transform="translate(127 6)"/><path class="cls-16" d="M997.54,458.19l0,0h0s0,0,0,0Z" transform="translate(127 6)"/><path class="cls-16" d="M996.86,457.05l0,0,0,0,0,0Z" transform="translate(127 6)"/><path class="cls-16" d="M996.2,458.14h0Z" transform="translate(127 6)"/><path class="cls-16" d="M1001.65,457.3l0,0h0l0,0Z" transform="translate(127 6)"/><path class="cls-16" d="M997.14,457.3h0v0Z" transform="translate(127 6)"/><path class="cls-16" d="M997.11,457.28s0,0,0,0h0s0,0,0,0Z" transform="translate(127 6)"/><path class="cls-16" d="M996,457.16v0l0,0Z" transform="translate(127 6)"/><path class="cls-16" d="M997.26,457.25h0s0,0,0,0Z" transform="translate(127 6)"/><path class="cls-16" d="M997.1,457.29l0,0h0l0,0Z" transform="translate(127 6)"/><path class="cls-16" d="M997.84,459.38l0,0,0,0,0,0Z" transform="translate(127 6)"/><path class="cls-16" d="M997.07,457.26s0,0,0,0l0,0Z" transform="translate(127 6)"/><path class="cls-16" d="M997.87,459.41l0,0,0,0,0,0Z" transform="translate(127 6)"/><polygon class="cls-16" points="1124.75 466.1 1124.74 466.09 1124.76 466.1 1124.75 466.1"/><path class="cls-16" d="M999.89,460.21l0,0v0Z" transform="translate(127 6)"/><path class="cls-16" d="M1001.47,456.69v0s0,0,0,0Z" transform="translate(127 6)"/><path class="cls-16" d="M997,457.16s0,0,0,0h0Z" transform="translate(127 6)"/><path class="cls-16" d="M996.05,456.29l0,0h0v0Z" transform="translate(127 6)"/><path class="cls-16" d="M1000.86,458.62l0,0,0,0,0,0Z" transform="translate(127 6)"/><path class="cls-16" d="M997.19,457.15l0,0v0l0,0Z" transform="translate(127 6)"/><text class="cls-17" transform="translate(876.12 756.8) scale(1.14 1)">RHAPSODIA <tspan x="-31.66" y="84.58">LITERARIA 7.0.</tspan></text><text class="cls-18" transform="translate(938.06 942.18) scale(1.14 1)">Department of English<tspan x="-37.06" y="31.61">St. Aloysius College, Edathua</tspan></text></svg>